<svg width="60" height="60" viewBox="0 0 60 60" fill="none" xmlns="http://www.w3.org/2000/svg">
    <circle cx="30" cy="30" r="30" fill="#B79683"/>
    <path d="M21.5489 23.9674C21.5661 23.7045 21.7844 23.5 22.0479 23.5H37.9521C38.2156 23.5 38.4339 23.7045 38.4511 23.9674L39.3618 37.9022C39.4184 38.7672 38.7319 39.5 37.865 39.5H22.135C21.2681 39.5 20.5816 38.7672 20.6382 37.9022L21.5489 23.9674Z" stroke="white"/>
    <path d="M27 26V26C27 27.6569 28.3431 29 30 29V29C31.6569 29 33 27.6569 33 26V26" stroke="white" stroke-linecap="round"/>
    <path d="M33 23V23C33 21.3431 31.6569 20 30 20V20C28.3431 20 27 21.3431 27 23V23" stroke="white"/>
</svg>
