<svg width="20" height="20" viewBox="0 0 20 20" fill="none" xmlns="http://www.w3.org/2000/svg">
<rect x="1.66797" y="1.66406" width="16.6667" height="16.6667" rx="2" fill="#333333"/>
<path d="M9.94858 5.89062C7.47945 5.89062 5.43359 7.90121 5.43359 10.4056C5.43359 12.91 7.44418 14.9206 9.94858 14.9206C12.453 14.9206 14.4636 12.8748 14.4636 10.4056C14.4636 7.93648 12.4177 5.89062 9.94858 5.89062ZM9.94858 13.298C8.36128 13.298 7.05617 11.9929 7.05617 10.4056C7.05617 8.81831 8.36128 7.5132 9.94858 7.5132C11.5359 7.5132 12.841 8.81831 12.841 10.4056C12.841 11.9929 11.5359 13.298 9.94858 13.298Z" fill="#E9E9E9"/>
<path d="M14.6401 6.80367C15.2051 6.80367 15.663 6.34569 15.663 5.78074C15.663 5.21579 15.2051 4.75781 14.6401 4.75781C14.0752 4.75781 13.6172 5.21579 13.6172 5.78074C13.6172 6.34569 14.0752 6.80367 14.6401 6.80367Z" fill="#E9E9E9"/>
</svg>
