<svg width="18" height="14" viewBox="0 0 18 14" fill="none" xmlns="http://www.w3.org/2000/svg">
<g clip-path="url(#clip0_5146_25732)">
<path fill-rule="evenodd" clip-rule="evenodd" d="M17.235 1.27614C16.7512 0.366159 16.2225 0.200707 15.1425 0.129799C14.0625 0.0588915 11.3512 0.0234375 9 0.0234375C6.64875 0.0234375 3.9375 0.0588915 2.8575 0.129799C1.7775 0.200707 1.24875 0.366159 0.75375 1.27614C0.27 2.18613 0 3.75792 0 6.52333C0 9.28874 0.25875 10.8605 0.765 11.7705C1.27125 12.6687 1.78875 12.846 2.86875 12.9287C3.94875 13.0114 6.66 13.035 9.01125 13.035C11.3625 13.035 14.0738 12.9996 15.1425 12.9287C16.2113 12.8578 16.7512 12.6923 17.235 11.7705C17.7412 10.8723 18 9.28874 18 6.53515C18 3.76974 17.7412 2.19795 17.235 1.28796V1.27614Z" fill="#333333"/>
<path fill-rule="evenodd" clip-rule="evenodd" d="M6.75 10.0674V2.97656L12.375 6.52196L6.75 10.0674Z" fill="#E9E9E9"/>
</g>
<defs>
<clipPath id="clip0_5146_25732">
<rect width="18" height="12.9998" fill="white" transform="translate(0 0.0234375)"/>
</clipPath>
</defs>
</svg>
