<svg width="101" height="22" viewBox="0 0 101 22" fill="none" xmlns="http://www.w3.org/2000/svg">
<g clip-path="url(#clip0_4863_29440)">
<path d="M39.0139 0.979903C37.958 0.979903 36.9872 0.950889 36.36 0.921875V1.36071C38.0147 1.82857 38.5001 1.81043 38.5001 7.83088V13.2384C38.5001 16.3756 37.9049 18.4682 36.5868 19.6578H36.601C36.601 19.6578 34.8684 21.453 30.6484 21.9644C31.2933 22.0079 31.9665 22.0188 32.6893 21.9753C37.8482 21.6743 39.7012 18.3521 39.7012 13.7062V7.86352C39.7012 1.84308 39.7296 1.83219 41.2709 1.36434V0.925502C40.6721 0.954516 39.9847 0.98353 39.0139 0.98353V0.979903Z" fill="white"/>
<path d="M24.1301 18.3775C24.5659 19.0811 26.2418 21.1992 30.3626 20.5427C27.9993 19.8174 26.9186 17.761 26.9186 13.6156V4.93671C26.9186 1.66536 27.032 1.59283 28.3465 1.36071V0.921875C27.7193 0.950889 26.0611 0.979903 25.0053 0.979903C23.9494 0.979903 22.2947 0.950889 21.6641 0.921875V1.36071C22.9786 1.59283 23.092 1.66536 23.092 4.93671V13.7316C23.092 15.7227 23.503 17.2278 24.1301 18.3775Z" fill="white"/>
<path d="M16.0144 2.67911C16.2411 2.86407 16.4644 3.07442 16.6805 3.30654C17.2403 3.89045 17.4813 4.31115 17.4813 4.31115C17.4777 4.3039 17.4706 4.29665 17.4635 4.29302C17.9702 5.04013 18.4273 5.95408 18.8099 7.0675H19.2387C19.228 6.37116 19.1926 5.50799 19.1395 4.36918C19.0863 3.22675 19.0154 2.32005 18.941 1.49678C17.1128 0.880226 14.9869 0.289062 11.589 0.289062C11.5075 0.289062 11.4295 0.292689 11.3516 0.292689C13.5448 0.894733 15.0435 1.8522 16.0144 2.67911Z" fill="white"/>
<path d="M8.54613 20.4015C5.92064 19.1793 4.19512 16.1655 4.19512 11.2729C4.19512 5.46286 6.62573 1.98116 10.4169 1.33922C9.81459 1.26306 9.22642 1.22316 8.68432 1.22679C5.82143 1.23767 3.9719 2.60496 3.52546 2.97489C1.13736 5.03853 0 8.03787 0 11.0408C0 13.779 0.949571 16.3649 2.69635 18.3415C3.51128 19.1757 5.42106 20.6518 8.54613 20.4052V20.4015Z" fill="white"/>
<path d="M17.7535 11.394C16.6976 11.394 15.0429 11.365 14.4123 11.3359V11.7748C15.7268 12.0069 15.8402 12.6234 15.8402 15.8948C15.8402 15.8948 15.8614 18.9921 15.7799 19.2532C15.7445 19.3692 15.6701 19.4853 15.5709 19.6014C15.5709 19.6014 15.5425 19.6304 15.4894 19.6848C15.4114 19.7646 15.3228 19.8407 15.2166 19.9205C14.4973 20.4863 12.5981 21.6287 8.87427 21.752H8.86719C9.63606 21.8935 10.4474 21.9733 11.3013 21.9733C15.9535 21.9733 18.3558 20.178 19.2664 19.0791C19.2664 19.0791 19.4967 18.7744 19.5747 18.3791C19.6526 17.9838 19.6668 16.0725 19.6668 16.0725C19.6668 11.7131 19.8794 11.3396 19.8794 11.3396C19.2522 11.3686 18.8093 11.3976 17.7535 11.3976V11.394Z" fill="white"/>
<path d="M66.552 18.3775C66.9878 19.0811 68.6637 21.1992 72.7844 20.5427C70.4211 19.8174 69.3405 17.761 69.3405 13.6156V4.93671C69.3405 1.66536 69.4538 1.59283 70.7684 1.36071V0.921875C70.1412 0.950889 68.483 0.979903 67.4271 0.979903C66.3713 0.979903 64.7166 0.950889 64.0859 0.921875V1.36071C65.4005 1.59283 65.5138 1.66536 65.5138 4.93671V13.7316C65.5138 15.7227 65.9248 17.2278 66.552 18.3775Z" fill="white"/>
<path d="M81.4357 0.979903C80.3799 0.979903 79.409 0.950889 78.7819 0.921875V1.36071C80.4366 1.82857 80.922 1.81043 80.922 7.83088V13.2384C80.922 16.3756 80.3267 18.4682 79.0087 19.6578H79.0228C79.0228 19.6578 77.2902 21.453 73.0703 21.9644C73.7152 22.0079 74.3884 22.0188 75.1112 21.9753C80.27 21.6743 82.1231 18.3521 82.1231 13.7062V7.86352C82.1231 1.84308 82.1515 1.83219 83.6927 1.36434V0.925502C83.0939 0.954516 82.4066 0.98353 81.4357 0.98353V0.979903Z" fill="white"/>
<path d="M58.4441 2.67911C58.6708 2.86407 58.894 3.07442 59.1102 3.30654C59.67 3.89045 59.9109 4.31115 59.9109 4.31115C59.9074 4.3039 59.9003 4.29665 59.8932 4.29302C60.3999 5.04013 60.857 5.95408 61.2396 7.0675H61.6684C61.6577 6.37116 61.6223 5.50799 61.5691 4.36918C61.516 3.22675 61.4451 2.32005 61.3707 1.49678C59.5424 0.880226 57.4165 0.289062 54.0186 0.289062C53.9371 0.289062 53.8592 0.292689 53.7812 0.292689C55.9745 0.894733 57.4732 1.8522 58.4441 2.67911Z" fill="white"/>
<path d="M50.9716 20.4013C48.3461 19.1791 46.6205 16.1652 46.6205 11.2727C46.6205 5.47352 49.0441 1.99182 52.8211 1.34263C52.2223 1.26646 51.6448 1.22657 51.1062 1.22657C48.2646 1.22294 46.3583 2.63738 45.9296 2.98918C43.5557 5.05644 42.4219 8.04853 42.4219 11.0406C42.4219 13.7788 43.3714 16.3647 45.1182 18.3377C45.9332 19.1718 47.8429 20.6516 50.968 20.4013H50.9716Z" fill="white"/>
<path d="M60.1832 11.394C59.1273 11.394 57.4726 11.365 56.8419 11.3359V11.7748C58.1565 12.0069 58.2698 12.6234 58.2698 15.8948C58.2698 15.8948 58.2911 18.9921 58.2096 19.2532C58.1742 19.3692 58.0998 19.4853 58.0006 19.6014C58.0006 19.6014 57.9758 19.6304 57.9191 19.6848C57.8411 19.7646 57.749 19.8443 57.6462 19.9205C56.927 20.4863 55.0278 21.6251 51.304 21.752H51.2969C52.0657 21.8935 52.8771 21.9733 53.731 21.9733C58.3832 21.9733 60.7855 20.178 61.6961 19.0791C61.6961 19.0791 61.9264 18.7744 62.0043 18.3791C62.0823 17.9838 62.0965 16.0725 62.0965 16.0725C62.0965 11.7131 62.3091 11.3396 62.3091 11.3396C61.6819 11.3686 61.239 11.3976 60.1832 11.3976V11.394Z" fill="white"/>
<path d="M96.4736 2.35015H96.47C97.37 3.16255 98.1034 4.35213 98.4861 6.01682H98.9432C98.9148 4.72931 98.9148 3.76822 98.9148 3.30036C98.9148 2.27761 98.89 1.87141 98.8475 1.03C98.681 0.964721 97.7031 0.663699 97.2318 0.554896C96.2008 0.315529 94.4575 0 92.6895 0C92.0127 0 91.3502 0.0942961 90.7266 0.275635C94.6666 0.522255 96.4771 2.3574 96.4771 2.3574L96.4736 2.35015Z" fill="white"/>
<path d="M85.5092 20.2962C85.5092 20.2962 87.7272 20.7459 90.3421 20.6407C88.1205 19.8138 86.4162 17.7429 86.0938 14.9141H85.4844V17.2316C85.4844 17.7865 85.495 18.1092 85.495 19.103C85.495 19.4294 85.495 19.8574 85.5092 20.2962Z" fill="white"/>
<path d="M88.9047 4.20116C88.9047 3.27271 89.3051 2.50384 89.9216 1.94531C87.2217 2.33338 86.4457 3.9074 86.2898 4.32085C86.0985 4.89025 85.9922 5.49592 85.9922 6.12698C85.9922 12.7894 97.4437 11.6324 97.4437 17.1995C97.4437 17.758 97.2914 18.273 97.0256 18.73C97.0256 18.73 97.0292 18.7264 97.0292 18.7228C97.0292 18.7228 96.0725 20.8589 91.4664 21.9216C91.8243 21.947 92.1821 21.9651 92.5329 21.9651C97.4402 21.9651 100.438 19.8978 100.438 16.2457C100.438 9.35118 88.9011 9.57604 88.9011 4.19754L88.9047 4.20116Z" fill="white"/>
</g>
<defs>
<clipPath id="clip0_4863_29440">
<rect width="100.435" height="22" fill="white"/>
</clipPath>
</defs>
</svg>
