<svg width="16" height="16" viewBox="0 0 16 16" fill="none" xmlns="http://www.w3.org/2000/svg">
<g clip-path="url(#clip0_2839_25054)">
<path d="M16 6.91905C16 10.7412 12.4187 13.8381 8 13.8381C7.56499 13.8383 7.13043 13.8076 6.69906 13.7463C6.63169 13.7366 6.56335 13.7536 6.50656 13.7944L3.50656 15.9491C3.45916 15.9832 3.4035 16.0009 3.34678 16C3.29007 15.9991 3.2349 15.9796 3.18842 15.9441C3.14194 15.9086 3.10628 15.8587 3.08606 15.8008C3.06584 15.7429 3.06199 15.6798 3.075 15.6195L3.64469 12.987C3.65905 12.9213 3.65319 12.8522 3.62799 12.7906C3.60279 12.7289 3.55968 12.678 3.50531 12.6457C1.39031 11.3994 0 9.29934 0 6.91905C0 3.09693 3.58187 0 8 0C12.4181 0 16 3.09762 16 6.91905Z" fill="#012E29"/>
<circle cx="4.75" cy="6.75" r="0.75" fill="white"/>
<circle cx="7.75" cy="6.75" r="0.75" fill="white"/>
<circle cx="10.75" cy="6.75" r="0.75" fill="white"/>
</g>
<defs>
<clipPath id="clip0_2839_25054">
<rect width="16" height="16" fill="white"/>
</clipPath>
</defs>
</svg>
