<svg width="24" height="24" viewBox="0 0 24 24" fill="none" xmlns="http://www.w3.org/2000/svg">
<path d="M17.2795 5.67789L17.4665 5.84017L17.709 5.78968L19.313 5.45567C19.7805 5.35834 20.2619 5.57503 20.5055 6.00441L21.3479 7.48906C21.5926 7.92035 21.5377 8.46291 21.2147 8.83356L20.1295 10.0789L19.9719 10.2597L20.0144 10.4958C20.1029 10.9883 20.1479 11.4911 20.1479 12C20.1479 12.5089 20.1029 13.0117 20.0144 13.5042L19.9719 13.7403L20.1295 13.9211L21.2147 15.1664C21.5377 15.5371 21.5926 16.0796 21.3479 16.5109L20.5055 17.9956C20.2619 18.425 19.7805 18.6417 19.313 18.5443L17.709 18.2103L17.4665 18.1598L17.2795 18.3221C16.5255 18.9761 15.6611 19.4857 14.7274 19.8235L14.4982 19.9065L14.4224 20.1381L13.9055 21.7161C13.7506 22.1889 13.3194 22.5 12.8423 22.5H11.1577C10.6806 22.5 10.2494 22.1889 10.0945 21.7161L9.57763 20.1381L9.50176 19.9065L9.27258 19.8235C8.33889 19.4857 7.4745 18.9761 6.72055 18.3221L6.53346 18.1598L6.29099 18.2103L4.68698 18.5443C4.21954 18.6417 3.73809 18.425 3.49448 17.9956L2.65214 16.5109C2.40744 16.0796 2.46227 15.5371 2.78526 15.1664L3.87046 13.9211L4.02805 13.7403L3.98562 13.5042C3.89712 13.0117 3.85215 12.5089 3.85215 12C3.85215 11.4911 3.89712 10.9883 3.98562 10.4958L4.02805 10.2597L3.87046 10.0789L2.78526 8.83356L2.41308 9.15789L2.78526 8.83356C2.46227 8.46292 2.40744 7.92035 2.65214 7.48906L3.49448 6.00441C3.73809 5.57503 4.21954 5.35834 4.68698 5.45567L6.29099 5.78968L6.53346 5.84017L6.72055 5.67789C7.4745 5.02389 8.33889 4.51426 9.27258 4.17645L9.50176 4.09353L9.57763 3.86192L10.0945 2.28387C10.2494 1.81106 10.6806 1.5 11.1577 1.5H12.8423C13.3194 1.5 13.7506 1.81106 13.9055 2.28387L14.4224 3.86192L14.4982 4.09353L14.7274 4.17645C15.6611 4.51426 16.5255 5.02389 17.2795 5.67789ZM14.4599 4.18822C14.4499 4.18497 14.4379 4.1755 14.4322 4.15809L13.8303 2.32043C13.6909 1.89488 13.2958 1.6 12.8423 1.6H11.1577C10.7042 1.6 10.3091 1.89488 10.1697 2.32043L9.56778 4.15809C9.56208 4.1755 9.55009 4.18497 9.54008 4.18822C8.43691 4.54686 7.42576 5.14408 6.57209 5.93382C6.56213 5.94303 6.55093 5.94516 6.54163 5.94322L4.67412 5.55434C4.22988 5.46183 3.78255 5.67023 3.56088 6.06094L2.71853 7.54559C2.49795 7.93438 2.54572 8.42286 2.84014 8.76072L4.1035 10.2105C4.11368 10.2222 4.11926 10.2404 4.11526 10.2592C3.99449 10.8271 3.93313 11.4096 3.93313 12C3.93313 12.5904 3.99449 13.1729 4.11526 13.7408C4.11926 13.7596 4.11368 13.7778 4.1035 13.7895L2.84014 15.2393C2.54572 15.5771 2.49795 16.0656 2.71853 16.4544L3.56088 17.9391C3.78255 18.3298 4.22988 18.5382 4.67412 18.4457L6.54163 18.0568C6.55093 18.0548 6.56213 18.057 6.57209 18.0662C7.42576 18.8559 8.43691 19.4531 9.54008 19.8118C9.55009 19.815 9.56208 19.8245 9.56778 19.8419L10.1697 21.6796C10.3091 22.1051 10.7042 22.4 11.1577 22.4H12.8423C13.2958 22.4 13.6909 22.1051 13.8303 21.6796L14.4322 19.8419C14.4379 19.8245 14.4499 19.815 14.4599 19.8118C15.5631 19.4531 16.5742 18.8559 17.4279 18.0662C17.4379 18.057 17.4491 18.0548 17.4584 18.0568L19.3259 18.4457C19.7701 18.5382 20.2175 18.3298 20.4391 17.9391L21.2815 16.4544C21.5021 16.0656 21.4543 15.5771 21.1599 15.2393L19.8965 13.7895C19.8863 13.7778 19.8807 13.7596 19.8847 13.7408C20.0055 13.1729 20.0669 12.5904 20.0669 12C20.0669 11.4096 20.0055 10.8271 19.8847 10.2592C19.8807 10.2404 19.8863 10.2222 19.8965 10.2105L21.1599 8.76072C21.4543 8.42286 21.5021 7.93438 21.2815 7.54559L20.4391 6.06094C20.2175 5.67023 19.7701 5.46183 19.3259 5.55434L17.4584 5.94322C17.4491 5.94516 17.4379 5.94303 17.4279 5.93382C16.5742 5.14408 15.5631 4.54686 14.4599 4.18822ZM12 15.9C9.89629 15.9 8.17607 14.1622 8.17607 12C8.17607 9.83783 9.89629 8.1 12 8.1C14.1037 8.1 15.8239 9.83783 15.8239 12C15.8239 14.1622 14.1037 15.9 12 15.9ZM12 15.8C14.0754 15.8 15.7429 14.0904 15.7429 12C15.7429 9.90958 14.0754 8.2 12 8.2C9.92464 8.2 8.25706 9.90958 8.25706 12C8.25706 14.0904 9.92464 15.8 12 15.8Z" stroke="black"/>
</svg>
