<svg width="16" height="17" viewBox="0 0 16 17" fill="none" xmlns="http://www.w3.org/2000/svg">
<path d="M0 17L2.54545 13H13.4545L16 17H0Z" fill="#012E29"/>
<path d="M6.53922 13.0714L6.53922 13.0715L6.54129 13.074C6.89017 13.4974 7.30883 13.9828 7.62992 14.3362L7.99956 14.7431L8.36969 14.3366C8.87164 13.7854 9.45012 13.0929 9.94723 12.4647L9.94837 12.4632C10.198 12.1453 10.4659 11.8202 10.7374 11.4907C11.2718 10.842 11.8201 10.1766 12.2702 9.51635C12.9597 8.50486 13.5 7.39916 13.5 6.1697C13.5 3.05465 11.0578 0.5 8 0.5C4.9416 0.5 2.5 3.0553 2.49998 6.1799L2.50002 6.18401C2.51112 7.53527 3.1425 8.76482 3.93178 9.87929C4.44919 10.6099 5.07235 11.339 5.66935 12.0374C5.97173 12.3912 6.26741 12.7372 6.53922 13.0714Z" fill="#012E29" stroke="white"/>
<path d="M9.5 6C9.5 5.17273 8.82727 4.5 8 4.5C7.17273 4.5 6.5 5.17273 6.5 6C6.5 6.82727 7.17273 7.5 8 7.5C8.82727 7.5 9.5 6.82727 9.5 6Z" fill="#F9F9F9"/>
</svg>
