<svg width="20" height="21" viewBox="0 0 20 21" fill="none" xmlns="http://www.w3.org/2000/svg">
<g clip-path="url(#clip0_5146_25702)">
<path d="M20 8.78698C20 13.1619 15.5234 16.7068 10 16.7068C9.45624 16.707 8.91304 16.6719 8.37383 16.6017C8.28961 16.5905 8.20419 16.6101 8.1332 16.6568L4.3832 19.1231C4.32395 19.1621 4.25438 19.1824 4.18348 19.1813C4.11258 19.1803 4.04362 19.158 3.98552 19.1174C3.92742 19.0767 3.88285 19.0196 3.85757 18.9534C3.8323 18.8871 3.82748 18.8148 3.84375 18.7458L4.55586 15.7326C4.57382 15.6574 4.56648 15.5783 4.53499 15.5077C4.50349 15.4371 4.44959 15.3788 4.38164 15.3419C1.73789 13.9154 0 11.5115 0 8.78698C0 4.41205 4.47734 0.867188 10 0.867188C15.5227 0.867188 20 4.41283 20 8.78698Z" fill="#333333"/>
<path d="M6.40078 6.84296C6.40057 6.7022 6.34451 6.56728 6.24491 6.46782C6.1453 6.36836 6.01029 6.3125 5.86953 6.3125H3.17187C3.03098 6.3125 2.89585 6.36847 2.79622 6.4681C2.6966 6.56772 2.64063 6.70285 2.64062 6.84374C2.64063 6.98464 2.6966 7.11976 2.79622 7.21939C2.89585 7.31901 3.03098 7.37498 3.17187 7.37498H3.98945V10.7925C3.98945 10.9334 4.04542 11.0685 4.14505 11.1681C4.24468 11.2678 4.37981 11.3237 4.5207 11.3237C4.6616 11.3237 4.79672 11.2678 4.89635 11.1681C4.99598 11.0685 5.05195 10.9334 5.05195 10.7925V7.3742H5.86953C6.01043 7.3742 6.14555 7.31823 6.24518 7.2186C6.34481 7.11898 6.40078 6.98385 6.40078 6.84296Z" fill="white"/>
<path d="M12.6906 10.2726H11.6133V6.84374C11.6133 6.70285 11.5573 6.56772 11.4577 6.4681C11.3581 6.36847 11.2229 6.3125 11.082 6.3125C10.9411 6.3125 10.806 6.36847 10.7064 6.4681C10.6068 6.56772 10.5508 6.70285 10.5508 6.84374V10.8054C10.5508 10.8752 10.5645 10.9442 10.5912 11.0087C10.6179 11.0731 10.6571 11.1317 10.7064 11.181C10.7557 11.2304 10.8143 11.2695 10.8787 11.2962C10.9432 11.3229 11.0123 11.3366 11.082 11.3366H12.6906C12.8315 11.3366 12.9666 11.2807 13.0663 11.181C13.1659 11.0814 13.2219 10.9463 13.2219 10.8054C13.2219 10.6645 13.1659 10.5294 13.0663 10.4297C12.9666 10.3301 12.8315 10.2742 12.6906 10.2742V10.2726Z" fill="white"/>
<path d="M14.1641 6.3125C14.0943 6.3125 14.0252 6.32624 13.9608 6.35294C13.8963 6.37964 13.8377 6.41877 13.7884 6.4681C13.7391 6.51743 13.6999 6.57599 13.6733 6.64044C13.6466 6.7049 13.6328 6.77398 13.6328 6.84374V10.7917C13.6328 10.9326 13.6888 11.0677 13.7884 11.1674C13.888 11.267 14.0232 11.323 14.1641 11.323C14.305 11.323 14.4401 11.267 14.5397 11.1674C14.6393 11.0677 14.6953 10.9326 14.6953 10.7917V6.84296C14.6951 6.7022 14.639 6.56728 14.5394 6.46782C14.4398 6.36836 14.3048 6.3125 14.1641 6.3125Z" fill="white"/>
<path d="M17.1652 10.3936L15.6297 8.57718L16.9187 7.37251C16.9697 7.32486 17.0108 7.26763 17.0396 7.2041C17.0685 7.14057 17.0845 7.07198 17.0869 7.00225C17.0892 6.93252 17.0778 6.86301 17.0533 6.79769C17.0288 6.73236 16.9916 6.67251 16.9439 6.62155C16.8963 6.57059 16.8391 6.52951 16.7755 6.50066C16.712 6.47181 16.6434 6.45576 16.5737 6.45342C16.5039 6.45108 16.4344 6.4625 16.3691 6.48703C16.3038 6.51155 16.2439 6.5487 16.193 6.59636L14.6953 7.99711V9.451L14.8516 9.30373L16.3535 11.0791C16.4445 11.1867 16.5746 11.2537 16.715 11.2654C16.8554 11.2771 16.9948 11.2326 17.1023 11.1416C17.2099 11.0506 17.277 10.9206 17.2887 10.7801C17.3004 10.6397 17.2559 10.5004 17.1648 10.3928L17.1652 10.3936Z" fill="white"/>
<path d="M8.65267 6.7996C8.41283 6.19297 7.55463 6.19141 7.31244 6.79726L5.78002 10.6335C5.72781 10.7644 5.72971 10.9107 5.7853 11.0402C5.8409 11.1697 5.94564 11.2718 6.0765 11.3241C6.20735 11.3763 6.35357 11.3744 6.48301 11.3188C6.61245 11.2632 6.71451 11.1585 6.76674 11.0277L7.03002 10.3663H8.92103L9.18236 11.0257C9.208 11.0906 9.24616 11.1497 9.29467 11.1998C9.34317 11.2499 9.40108 11.29 9.46507 11.3177C9.52905 11.3454 9.59788 11.3602 9.6676 11.3613C9.73733 11.3624 9.80659 11.3498 9.87142 11.3241C9.93632 11.2985 9.99553 11.2603 10.0457 11.2118C10.0958 11.1633 10.1359 11.1053 10.1636 11.0413C10.1913 10.9773 10.2061 10.9084 10.2072 10.8386C10.2083 10.7688 10.1956 10.6996 10.1699 10.6347L8.65267 6.7996ZM7.45502 9.30386L7.98041 7.98865L8.50111 9.30386H7.45502Z" fill="white"/>
</g>
<defs>
<clipPath id="clip0_5146_25702">
<rect width="20" height="19.9997" fill="white" transform="translate(0 0.0234375)"/>
</clipPath>
</defs>
</svg>
