<svg width="24" height="24" viewBox="0 0 24 24" fill="none" xmlns="http://www.w3.org/2000/svg">
    <mask id="path-1-outside-1_4998_10843" maskUnits="userSpaceOnUse" x="0" y="1" width="25" height="22" fill="black">
        <rect fill="white" y="1" width="25" height="22"/>
        <path fill-rule="evenodd" clip-rule="evenodd" d="M21.3054 11.7868C23.5668 9.54792 23.5668 5.91801 21.3054 3.67915C19.044 1.44029 15.3777 1.44028 13.1163 3.67914L11.9999 4.78443L10.8851 3.68073C8.62376 1.44187 4.95738 1.44187 2.69602 3.68073C0.434662 5.91959 0.434659 9.5495 2.69602 11.7884L3.81081 12.8921L3.8105 12.8924L11.9996 21L11.9999 20.9997L12.0018 21.0016L20.1909 12.8939L20.189 12.8921L21.3054 11.7868Z"/>
    </mask>
    <path fill-rule="evenodd" clip-rule="evenodd" d="M21.3054 11.7868C23.5668 9.54792 23.5668 5.91801 21.3054 3.67915C19.044 1.44029 15.3777 1.44028 13.1163 3.67914L11.9999 4.78443L10.8851 3.68073C8.62376 1.44187 4.95738 1.44187 2.69602 3.68073C0.434662 5.91959 0.434659 9.5495 2.69602 11.7884L3.81081 12.8921L3.8105 12.8924L11.9996 21L11.9999 20.9997L12.0018 21.0016L20.1909 12.8939L20.189 12.8921L21.3054 11.7868Z" fill="#FB6D4E"/>
    <path d="M21.3054 3.67915L22.009 2.96851V2.96851L21.3054 3.67915ZM21.3054 11.7868L20.6018 11.0761V11.0761L21.3054 11.7868ZM13.1163 3.67914L13.8199 4.38978L13.1163 3.67914ZM11.9999 4.78443L11.2963 5.49506L11.9999 6.19162L12.7035 5.49506L11.9999 4.78443ZM10.8851 3.68073L11.5887 2.9701L10.8851 3.68073ZM2.69602 3.68073L3.39958 4.39136L2.69602 3.68073ZM2.69602 11.7884L3.39958 11.0777L2.69602 11.7884ZM3.81081 12.8921L4.51461 13.6025L5.2319 12.8918L4.51437 12.1814L3.81081 12.8921ZM3.8105 12.8924L3.1067 12.182L2.3894 12.8926L3.10693 13.603L3.8105 12.8924ZM11.9996 21L11.296 21.7106L11.9998 22.4074L12.7034 21.7104L11.9996 21ZM11.9999 20.9997L12.7035 20.289L11.9997 19.5923L11.2961 20.2893L11.9999 20.9997ZM12.0018 21.0016L11.2983 21.7122L12.0018 22.4088L12.7054 21.7122L12.0018 21.0016ZM20.1909 12.8939L20.8945 13.6046L21.6123 12.8939L20.8945 12.1833L20.1909 12.8939ZM20.189 12.8921L19.4854 12.1814L18.7677 12.8921L19.4855 13.6027L20.189 12.8921ZM20.6018 4.38978C22.4679 6.23732 22.4679 9.2286 20.6018 11.0761L22.009 12.4974C24.6656 9.86723 24.6656 5.59869 22.009 2.96851L20.6018 4.38978ZM13.8199 4.38978C15.6915 2.53674 18.7302 2.53674 20.6018 4.38978L22.009 2.96851C19.3579 0.343832 15.0638 0.343827 12.4127 2.96851L13.8199 4.38978ZM12.7035 5.49506L13.8199 4.38978L12.4127 2.96851L11.2963 4.0738L12.7035 5.49506ZM10.1816 4.39136L11.2963 5.49506L12.7035 4.0738L11.5887 2.9701L10.1816 4.39136ZM3.39958 4.39136C5.27124 2.53833 8.3099 2.53833 10.1816 4.39136L11.5887 2.9701C8.93763 0.345415 4.64351 0.345415 1.99246 2.9701L3.39958 4.39136ZM3.39958 11.0777C1.53347 9.23018 1.53347 6.23891 3.39958 4.39136L1.99246 2.9701C-0.66415 5.60028 -0.664154 9.86881 1.99245 12.499L3.39958 11.0777ZM4.51437 12.1814L3.39958 11.0777L1.99245 12.499L3.10724 13.6027L4.51437 12.1814ZM4.5143 13.6028L4.51461 13.6025L3.10701 12.1817L3.1067 12.182L4.5143 13.6028ZM12.7032 20.2894L4.51406 12.1817L3.10693 13.603L11.296 21.7106L12.7032 20.2894ZM11.2961 20.2893L11.2958 20.2896L12.7034 21.7104L12.7037 21.7101L11.2961 20.2893ZM12.7054 20.2909L12.7035 20.289L11.2964 21.7103L11.2983 21.7122L12.7054 20.2909ZM19.4874 12.1833L11.2983 20.2909L12.7054 21.7122L20.8945 13.6046L19.4874 12.1833ZM19.4855 13.6027L19.4874 13.6046L20.8945 12.1833L20.8926 12.1814L19.4855 13.6027ZM20.6018 11.0761L19.4854 12.1814L20.8926 13.6027L22.009 12.4974L20.6018 11.0761Z" fill="white" mask="url(#path-1-outside-1_4998_10843)"/>
</svg>