<svg width="30" height="30" viewBox="0 0 30 30" fill="none" xmlns="http://www.w3.org/2000/svg">
<rect width="30" height="30" rx="15" fill="#012E29"/>
<path d="M8 13V21C8 21.5523 8.44772 22 9 22H13.25V18.25H16.75V22H21C21.5523 22 22 21.5523 22 21V13H8Z" fill="white"/>
<path d="M20.7143 16C19.9371 16 19.2286 15.6215 18.8095 15.0056C18.3905 15.6215 17.6819 16 16.9048 16C16.1276 16 15.419 15.6215 15 15.0056C14.581 15.6215 13.8724 16 13.0952 16C12.3181 16 11.6095 15.6215 11.1905 15.0056C10.7714 15.6215 10.0629 16 9.28571 16C8.02857 16 7 14.9981 7 13.7737C7 13.7365 7 13.7069 7.01524 13.6772L8.4019 8.85343C8.51619 8.35622 8.97333 8 9.51429 8H20.4857C21.0267 8 21.4838 8.35622 21.5981 8.86827L22.9848 13.6698C22.9848 13.6698 23 13.7365 23 13.7662C23 14.9907 21.9714 15.9926 20.7143 15.9926V16Z" fill="white" stroke="#012E29"/>
</svg>
