<svg width="60" height="60" viewBox="0 0 60 60" fill="none" xmlns="http://www.w3.org/2000/svg">
    <circle cx="30" cy="30" r="30" fill="#B79683"/>
    <path d="M29 39.4265C29 38.991 29.1415 38.6248 29.4245 38.3279C29.7264 38.0112 30.0849 37.8529 30.5 37.8529C30.9151 37.8529 31.2642 38.0112 31.5472 38.3279C31.8491 38.6248 32 38.991 32 39.4265C32 39.8619 31.8491 40.238 31.5472 40.5547C31.2642 40.8516 30.9151 41 30.5 41C30.0849 41 29.7264 40.8516 29.4245 40.5547C29.1415 40.238 29 39.8619 29 39.4265ZM29.3396 23.1269C29.3208 22.9487 29.3019 22.7211 29.283 22.444C29.2642 22.1669 29.2453 21.8898 29.2264 21.6127C29.2075 21.3356 29.1887 21.0882 29.1698 20.8704C29.1509 20.6329 29.1415 20.4746 29.1415 20.3954C29.1415 19.9996 29.2642 19.673 29.5094 19.4157C29.7547 19.1386 30.0849 19 30.5 19C30.9151 19 31.2453 19.1386 31.4906 19.4157C31.7358 19.673 31.8585 19.9996 31.8585 20.3954C31.8585 20.4746 31.8491 20.6329 31.8302 20.8704C31.8113 21.0882 31.7925 21.3356 31.7736 21.6127C31.7547 21.8898 31.7358 22.1669 31.717 22.444C31.6981 22.7211 31.6792 22.9487 31.6604 23.1269L30.783 35.3887H30.217L29.3396 23.1269Z" fill="white"/>
</svg>
