<svg width="24" height="24" viewBox="0 0 24 24" fill="none" xmlns="http://www.w3.org/2000/svg">
<path fill-rule="evenodd" clip-rule="evenodd" d="M12 0C5.37258 0 0 5.37258 0 12C0 18.6274 5.37258 24 12 24C18.6274 24 24 18.6274 24 12C24 5.37258 18.6274 0 12 0ZM10.3737 16H9.21774L8.10887 12H6V11H7.83165L7 8H8.22312L8.98998 11H9V11.0392L9.78226 14.0994H9.84946L11.3952 8H12.6317L14.1505 14.07H14.2312L15 11.0769V11H15.0197L15.7903 8H17L16.1683 11H18V12H15.8911L14.7823 16H13.6398L12.0538 9.90055H11.9462L10.3737 16Z" fill="#CCCCCC"/>
</svg>
