<svg width="101" height="22" viewBox="0 0 101 22" fill="none" xmlns="http://www.w3.org/2000/svg">
<g clip-path="url(#clip0_4871_44246)">
<path d="M39.0174 0.982833C37.9615 0.982833 36.9907 0.953819 36.3636 0.924805V1.36364C38.0182 1.8315 38.5036 1.81336 38.5036 7.83381V13.2413C38.5036 16.3785 37.9084 18.4711 36.5903 19.6607H36.6045C36.6045 19.6607 34.8719 21.456 30.652 21.9673C31.2968 22.0109 31.97 22.0217 32.6928 21.9782C37.8517 21.6772 39.7048 18.3551 39.7048 13.7092V7.86645C39.7048 1.84601 39.7331 1.83512 41.2744 1.36727V0.928431C40.6756 0.957446 39.9882 0.98646 39.0174 0.98646V0.982833Z" fill="#012E29"/>
<path d="M24.1326 18.3805C24.5684 19.0841 26.2443 21.2021 30.365 20.5456C28.0017 19.8203 26.921 17.7639 26.921 13.6185V4.93964C26.921 1.66829 27.0344 1.59576 28.3489 1.36364V0.924805C27.7218 0.953819 26.0636 0.982833 25.0077 0.982833C23.9519 0.982833 22.2972 0.953819 21.6665 0.924805V1.36364C22.981 1.59576 23.0944 1.66829 23.0944 4.93964V13.7346C23.0944 15.7257 23.5054 17.2308 24.1326 18.3805Z" fill="#012E29"/>
<path d="M16.0151 2.68399C16.2419 2.86895 16.4651 3.07931 16.6812 3.31142C17.241 3.89533 17.482 4.31604 17.482 4.31604C17.4784 4.30878 17.4714 4.30153 17.4643 4.2979C17.9709 5.04502 18.428 5.95896 18.8107 7.07238H19.2394C19.2288 6.37604 19.1933 5.51287 19.1402 4.37406C19.087 3.23163 19.0162 2.32494 18.9418 1.50166C17.1135 0.885109 14.9876 0.293945 11.5897 0.293945C11.5082 0.293945 11.4302 0.297572 11.3523 0.297572C13.5455 0.899616 15.0443 1.85708 16.0151 2.68399Z" fill="#012E29"/>
<path d="M8.54613 20.4084C5.92064 19.1861 4.19512 16.1723 4.19512 11.2798C4.19512 5.4697 6.62573 1.98799 10.4169 1.34606C9.81459 1.26989 9.22642 1.23 8.68432 1.23363C5.82143 1.24451 3.9719 2.6118 3.52546 2.98173C1.13736 5.04536 0 8.0447 0 11.0477C0 13.7859 0.949571 16.3718 2.69635 18.3484C3.51128 19.1825 5.42106 20.6586 8.54613 20.412V20.4084Z" fill="#012E29"/>
<path d="M17.7548 11.3959C16.6989 11.3959 15.0443 11.3669 14.4136 11.3379V11.7767C15.7281 12.0088 15.8415 12.6254 15.8415 15.8967C15.8415 15.8967 15.8628 18.994 15.7813 19.2551C15.7458 19.3712 15.6714 19.4872 15.5722 19.6033C15.5722 19.6033 15.5439 19.6323 15.4907 19.6867C15.4128 19.7665 15.3242 19.8427 15.2179 19.9225C14.4986 20.4882 12.5995 21.6307 8.87562 21.754H8.86853C9.6374 21.8954 10.4488 21.9752 11.3027 21.9752C15.9549 21.9752 18.3571 20.18 19.2677 19.081C19.2677 19.081 19.498 18.7764 19.576 18.3811C19.6539 17.9858 19.6681 16.0745 19.6681 16.0745C19.6681 11.7151 19.8807 11.3415 19.8807 11.3415C19.2536 11.3705 18.8107 11.3995 17.7548 11.3995V11.3959Z" fill="#012E29"/>
<path d="M66.5549 18.3805C66.9907 19.0841 68.6666 21.2021 72.7874 20.5456C70.4241 19.8203 69.3434 17.7639 69.3434 13.6185V4.93964C69.3434 1.66829 69.4568 1.59576 70.7713 1.36364V0.924805C70.1442 0.953819 68.4859 0.982833 67.4301 0.982833C66.3742 0.982833 64.7196 0.953819 64.0889 0.924805V1.36364C65.4034 1.59576 65.5168 1.66829 65.5168 4.93964V13.7346C65.5168 15.7257 65.9278 17.2308 66.5549 18.3805Z" fill="#012E29"/>
<path d="M81.4398 0.982833C80.3839 0.982833 79.4131 0.953819 78.7859 0.924805V1.36364C80.4406 1.8315 80.926 1.81336 80.926 7.83381V13.2413C80.926 16.3785 80.3308 18.4711 79.0127 19.6607H79.0269C79.0269 19.6607 77.2943 21.456 73.0743 21.9673C73.7192 22.0109 74.3924 22.0217 75.1152 21.9782C80.2741 21.6772 82.1271 18.3551 82.1271 13.7092V7.86645C82.1271 1.84601 82.1555 1.83512 83.6968 1.36727V0.928431C83.098 0.957446 82.4106 0.98646 81.4398 0.98646V0.982833Z" fill="#012E29"/>
<path d="M58.4375 2.68399C58.6642 2.86895 58.8875 3.07931 59.1036 3.31142C59.6634 3.89533 59.9043 4.31604 59.9043 4.31604C59.9008 4.30878 59.8937 4.30153 59.8866 4.2979C60.3933 5.04502 60.8504 5.95896 61.233 7.07238H61.6618C61.6511 6.37604 61.6157 5.51287 61.5626 4.37406C61.5094 3.23163 61.4385 2.32494 61.3641 1.50166C59.5359 0.885109 57.41 0.293945 54.0121 0.293945C53.9306 0.293945 53.8526 0.297572 53.7747 0.297572C55.9679 0.899616 57.4666 1.85708 58.4375 2.68399Z" fill="#012E29"/>
<path d="M50.9685 20.4081C48.343 19.1859 46.6175 16.1721 46.6175 11.2796C46.6175 5.48036 49.041 1.99865 52.818 1.34946C52.2192 1.2733 51.6417 1.23341 51.1031 1.23341C48.2615 1.22978 46.3553 2.64422 45.9266 2.99602C43.5526 5.06328 42.4188 8.05536 42.4188 11.0475C42.4188 13.7857 43.3684 16.3716 45.1152 18.3445C45.9301 19.1787 47.8399 20.6584 50.965 20.4081H50.9685Z" fill="#012E29"/>
<path d="M60.1772 11.3959C59.1213 11.3959 57.4666 11.3669 56.836 11.3379V11.7767C58.1505 12.0088 58.2639 12.6254 58.2639 15.8967C58.2639 15.8967 58.2851 18.994 58.2036 19.2551C58.1682 19.3712 58.0938 19.4872 57.9946 19.6033C57.9946 19.6033 57.9698 19.6323 57.9131 19.6867C57.8351 19.7665 57.743 19.8463 57.6403 19.9225C56.921 20.4882 55.0219 21.627 51.298 21.754H51.2909C52.0598 21.8954 52.8712 21.9752 53.7251 21.9752C58.3772 21.9752 60.7795 20.18 61.6901 19.081C61.6901 19.081 61.9204 18.7764 61.9984 18.3811C62.0763 17.9858 62.0905 16.0745 62.0905 16.0745C62.0905 11.7151 62.3031 11.3415 62.3031 11.3415C61.6759 11.3705 61.233 11.3995 60.1772 11.3995V11.3959Z" fill="#012E29"/>
<path d="M96.4735 2.35405H96.4699C97.3699 3.16645 98.1033 4.35603 98.486 6.02072H98.9431C98.9147 4.73322 98.9147 3.77212 98.9147 3.30427C98.9147 2.28152 98.8899 1.87532 98.8474 1.03391C98.6809 0.968628 97.703 0.667606 97.2317 0.558802C96.2006 0.319435 94.4574 0.00390625 92.6894 0.00390625C92.0126 0.00390625 91.35 0.0982023 90.7264 0.279541C94.6664 0.526161 96.477 2.36131 96.477 2.36131L96.4735 2.35405Z" fill="#012E29"/>
<path d="M85.5073 20.2991C85.5073 20.2991 87.7254 20.7488 90.3402 20.6437C88.1187 19.8168 86.4144 17.7459 86.092 14.917H85.4825V17.2345C85.4825 17.7894 85.4932 18.1122 85.4932 19.1059C85.4932 19.4323 85.4932 19.8603 85.5073 20.2991Z" fill="#012E29"/>
<path d="M88.9017 4.20702C88.9017 3.27857 89.3021 2.50969 89.9186 1.95117C87.2187 2.33924 86.4428 3.91326 86.2869 4.32671C86.0956 4.89611 85.9893 5.50178 85.9893 6.13284C85.9893 12.7952 97.4408 11.6383 97.4408 17.2054C97.4408 17.7639 97.2884 18.2789 97.0227 18.7359C97.0227 18.7359 97.0262 18.7322 97.0262 18.7286C97.0262 18.7286 96.0696 20.8648 91.4635 21.9274C91.8213 21.9528 92.1792 21.971 92.53 21.971C97.4372 21.971 100.435 19.9037 100.435 16.2515C100.435 9.35704 88.8982 9.5819 88.8982 4.2034L88.9017 4.20702Z" fill="#012E29"/>
</g>
<defs>
<clipPath id="clip0_4871_44246">
<rect width="100.435" height="22" fill="white"/>
</clipPath>
</defs>
</svg>
