<svg width="16" height="15" viewBox="0 0 16 15" fill="none" xmlns="http://www.w3.org/2000/svg">
    <g opacity="0.15">
        <mask id="path-1-outside-1_5014_32618" maskUnits="userSpaceOnUse" x="0.875" y="0.75" width="15" height="14" fill="black">
            <rect fill="white" x="0.875" y="0.75" width="15" height="14"/>
            <path fill-rule="evenodd" clip-rule="evenodd" d="M13.2825 7.40446C14.5527 6.11092 14.5527 4.01369 13.2825 2.72015C12.0122 1.42662 9.95275 1.42662 8.6825 2.72015L8.05502 3.35913L7.42768 2.72029C6.15743 1.42675 4.09794 1.42675 2.82769 2.72029C1.55744 4.01382 1.55744 6.11105 2.82769 7.40459L8.05495 12.7277L8.05516 12.7275L8.05523 12.7275L13.2825 7.40446Z"/>
        </mask>
        <path fill-rule="evenodd" clip-rule="evenodd" d="M13.2825 7.40446C14.5527 6.11092 14.5527 4.01369 13.2825 2.72015C12.0122 1.42662 9.95275 1.42662 8.6825 2.72015L8.05502 3.35913L7.42768 2.72029C6.15743 1.42675 4.09794 1.42675 2.82769 2.72029C1.55744 4.01382 1.55744 6.11105 2.82769 7.40459L8.05495 12.7277L8.05516 12.7275L8.05523 12.7275L13.2825 7.40446Z" fill="black"/>
        <path d="M13.2825 2.72015L12.569 3.42081V3.42081L13.2825 2.72015ZM13.2825 7.40446L12.569 6.7038L12.569 6.7038L13.2825 7.40446ZM8.6825 2.72015L7.969 2.01949V2.01949L8.6825 2.72015ZM8.05502 3.35913L7.34153 4.05978L8.05502 4.78636L8.76852 4.05978L8.05502 3.35913ZM7.42768 2.72029L8.14118 2.01963V2.01963L7.42768 2.72029ZM2.82769 2.72029L2.11419 2.01963L2.82769 2.72029ZM2.82769 7.40459L3.54119 6.70393L2.82769 7.40459ZM8.05495 12.7277L7.34146 13.4283L8.05517 14.1551L8.76867 13.4281L8.05495 12.7277ZM8.05516 12.7275L8.76706 12.0252L8.05331 11.3017L7.34144 12.027L8.05516 12.7275ZM8.05523 12.7275L7.34332 13.4298L8.05685 14.1531L8.76872 13.4282L8.05523 12.7275ZM12.569 3.42081C13.4572 4.32534 13.4572 5.79927 12.569 6.7038L13.996 8.10511C15.6482 6.42257 15.6482 3.70203 13.996 2.0195L12.569 3.42081ZM9.396 3.42081C10.2743 2.5264 11.6907 2.5264 12.569 3.42081L13.996 2.0195C12.3338 0.326838 9.6312 0.326833 7.969 2.01949L9.396 3.42081ZM8.76852 4.05978L9.396 3.42081L7.969 2.01949L7.34153 2.65847L8.76852 4.05978ZM6.71418 3.42094L7.34153 4.05978L8.76852 2.65847L8.14118 2.01963L6.71418 3.42094ZM3.54119 3.42094C4.4195 2.52653 5.83587 2.52653 6.71418 3.42094L8.14118 2.01963C6.47899 0.326972 3.77639 0.326971 2.11419 2.01963L3.54119 3.42094ZM3.54119 6.70393C2.65294 5.7994 2.65294 4.32548 3.54119 3.42094L2.11419 2.01963C0.461938 3.70217 0.461934 6.4227 2.11419 8.10524L3.54119 6.70393ZM8.76845 12.027L3.54119 6.70393L2.11419 8.10524L7.34146 13.4283L8.76845 12.027ZM7.34144 12.027L7.34124 12.0272L8.76867 13.4281L8.76887 13.4279L7.34144 12.027ZM8.76713 12.0252L8.76706 12.0252L7.34326 13.4297L7.34332 13.4298L8.76713 12.0252ZM12.569 6.7038L7.34173 12.0269L8.76872 13.4282L13.996 8.10511L12.569 6.7038Z" fill="white" mask="url(#path-1-outside-1_5014_32618)"/>
    </g>
</svg>