<svg width="60" height="60" viewBox="0 0 60 60" fill="none" xmlns="http://www.w3.org/2000/svg">
<circle cx="30" cy="30" r="30" fill="#E9E9E9"/>
<path d="M28 39.4265C28 38.991 28.1415 38.6248 28.4245 38.3279C28.7264 38.0112 29.0849 37.8529 29.5 37.8529C29.9151 37.8529 30.2642 38.0112 30.5472 38.3279C30.8491 38.6248 31 38.991 31 39.4265C31 39.8619 30.8491 40.238 30.5472 40.5547C30.2642 40.8516 29.9151 41 29.5 41C29.0849 41 28.7264 40.8516 28.4245 40.5547C28.1415 40.238 28 39.8619 28 39.4265ZM28.3396 23.1269C28.3208 22.9487 28.3019 22.7211 28.283 22.444C28.2642 22.1669 28.2453 21.8898 28.2264 21.6127C28.2075 21.3356 28.1887 21.0882 28.1698 20.8704C28.1509 20.6329 28.1415 20.4746 28.1415 20.3954C28.1415 19.9996 28.2642 19.673 28.5094 19.4157C28.7547 19.1386 29.0849 19 29.5 19C29.9151 19 30.2453 19.1386 30.4906 19.4157C30.7358 19.673 30.8585 19.9996 30.8585 20.3954C30.8585 20.4746 30.8491 20.6329 30.8302 20.8704C30.8113 21.0882 30.7925 21.3356 30.7736 21.6127C30.7547 21.8898 30.7358 22.1669 30.717 22.444C30.6981 22.7211 30.6792 22.9487 30.6604 23.1269L29.783 35.3887H29.217L28.3396 23.1269Z" fill="#AAAAAA"/>
</svg>
