<svg width="30" height="30" viewBox="0 0 30 30" fill="none" xmlns="http://www.w3.org/2000/svg">
<path fill-rule="evenodd" clip-rule="evenodd" d="M14.5 21.0911C13.5187 21.6605 12.341 22 11.0898 22C8.5274 22 6.28393 20.5984 5.06815 18.5178C5.06815 18.5068 5.05725 18.5068 5.05725 18.4986C5.05725 18.4904 5.04634 18.4877 5.04634 18.4795L6.02769 17.9675L7.00904 17.4638C7.00904 17.4638 7.02812 17.483 7.03902 17.5022C7.8759 18.8655 9.38063 19.7743 11.0844 19.7743C11.635 19.7743 12.1638 19.6785 12.6354 19.5225C11.5859 18.3125 10.9508 16.7274 10.9508 14.9945C10.9508 13.2616 11.5778 11.6848 12.6164 10.4666C12.1448 10.3023 11.6241 10.2147 11.0844 10.2147C9.39971 10.2147 7.83773 11.1236 6.98178 12.5855C6.97088 12.5964 6.97088 12.6046 6.97088 12.6156L5 11.589C5.0109 11.5698 5.01908 11.5506 5.02999 11.5397C6.23214 9.42081 8.5056 8 11.0898 8C12.341 8 13.5187 8.33946 14.5 8.91983C15.4841 8.33946 16.659 8 17.9102 8C20.4917 8 22.7651 9.42081 23.97 11.5397C23.9809 11.5506 23.9891 11.5698 24 11.589L22.0237 12.6156C22.0237 12.6156 22.0237 12.5964 22.0128 12.5855C21.1541 11.1236 19.5948 10.2147 17.9075 10.2147C17.3677 10.2147 16.8471 10.3023 16.3755 10.4666C17.4168 11.6848 18.041 13.2726 18.041 14.9945C18.041 16.7165 17.4059 18.3125 16.3564 19.5225C16.828 19.6785 17.3595 19.7743 17.9075 19.7743C19.6139 19.7743 21.1159 18.8655 21.9528 17.5022C21.9637 17.483 21.9719 17.472 21.9828 17.4638L22.9641 17.9675L23.9455 18.4795C23.9455 18.4795 23.9373 18.4904 23.9373 18.4986C23.9373 18.5068 23.9264 18.5096 23.9264 18.5178C22.7133 20.5984 20.4671 22 17.9047 22C16.6535 22 15.4759 21.6605 14.4945 21.0911H14.5ZM14.5 18.3152C13.6904 17.4529 13.1697 16.2839 13.1697 14.9973C13.1697 13.7106 13.6604 12.5772 14.5 11.7176C15.3369 12.58 15.8303 13.7298 15.8303 14.9973C15.8303 16.2648 15.3096 17.4556 14.5 18.3152Z" fill="white"/>
</svg>
