<svg width="20" height="20" viewBox="0 0 20 20" fill="none" xmlns="http://www.w3.org/2000/svg">
<path d="M1.69225 9.84593C3.4708 5.25913 8.63095 2.98259 13.2178 4.76115C15.5519 5.66623 17.3975 7.51177 18.3025 9.84593C18.3401 9.94284 18.3401 10.0503 18.3025 10.1472C16.524 14.734 11.3638 17.0106 6.77703 15.232C4.44287 14.3269 2.59733 12.4814 1.69225 10.1472C1.65467 10.0503 1.65467 9.94284 1.69225 9.84593ZM7.0783 14.455C11.1855 16.0476 15.7998 14.0533 17.4654 9.99661C16.6251 7.95212 14.9818 6.33896 12.9165 5.53812C8.80932 3.94554 4.19501 5.93989 2.52935 9.99653C3.36966 12.041 5.01296 13.6542 7.0783 14.455ZM9.9974 13.3299C8.15645 13.3299 6.66406 11.8375 6.66406 9.99657C6.66406 8.15562 8.15645 6.66324 9.9974 6.66324C11.8383 6.66324 13.3307 8.15562 13.3307 9.99657C13.3307 11.8375 11.8383 13.3299 9.9974 13.3299ZM9.9974 12.4966C11.3781 12.4966 12.4974 11.3773 12.4974 9.99657C12.4974 8.61586 11.3781 7.49657 9.9974 7.49657C8.61668 7.49657 7.4974 8.61586 7.4974 9.99657C7.4974 11.3773 8.61668 12.4966 9.9974 12.4966Z" fill="#666666"/>
</svg>
