<svg width="30" height="30" viewBox="0 0 30 30" fill="none" xmlns="http://www.w3.org/2000/svg">
<path fill-rule="evenodd" clip-rule="evenodd" d="M20.0442 8.92564L15.8107 18.9181L14.6426 16.3554L16.8005 10.4837C16.9629 10.0294 17.53 9.81852 18.4872 9.81852L18.8277 8.9267H13.7993L13.4746 9.81852C14.1883 9.81852 14.4803 10.0294 14.3664 10.4837L13.2954 13.468L11.1871 8.92564C10.7981 8.43862 10.9921 8.19616 11.7553 8.19616V7.14094H6.88818V8.1951C7.79688 8.1951 8.36402 8.43862 8.60753 8.92459L12.1759 16.5167L10.505 20.9779C10.4724 21.5777 9.53203 21.8698 7.71465 21.8698L7.37415 22.7616H21.2607L23.1909 18.6577H22.1852C21.2449 20.7829 20.158 21.8698 18.9405 21.8698H12.5649L13.5062 19.3556L14.3169 20.9779H16.1343L21.2607 8.92564C21.5042 8.19616 22.1367 7.80612 23.1266 7.80612V6.86475H18.9415V7.80612C20.2065 7.80612 20.5639 8.1951 20.0442 8.92564Z" fill="white"/>
</svg>
