<svg width="30" height="30" viewBox="0 0 30 30" fill="none" xmlns="http://www.w3.org/2000/svg">
<path d="M15.0964 22.5358C16.8792 22.5358 18.3237 23.0762 18.3237 23.742C18.3237 24.4077 16.8792 24.9454 15.0964 24.9454C13.3137 24.9454 11.8691 24.4077 11.8691 23.742C11.8691 23.0762 13.3137 22.5358 15.0964 22.5358ZM8.03114 11.758C8.12039 11.758 8.20495 11.7413 8.28716 11.7162L11.2185 23.533C11.5473 24.8534 13.1657 25.8535 15.1129 25.8535C17.06 25.8535 18.6807 24.8534 19.0072 23.533L21.9362 11.7274C22.0067 11.7469 22.0818 11.7608 22.1617 11.7608C22.7301 11.7608 23.1905 11.2148 23.1905 10.5379C23.1905 9.86098 22.7301 9.31778 22.1617 9.31778C21.5933 9.31778 21.1306 9.86656 21.1306 10.5379C21.1306 11.0254 21.3701 11.4432 21.7178 11.6382L18.3214 20.2682L18.8686 8.63808H18.8921C19.4605 8.63808 19.9209 8.09209 19.9209 7.41796C19.9209 6.74383 19.4605 6.19505 18.8921 6.19505C18.3237 6.19505 17.8633 6.74104 17.8633 7.41796C17.8633 7.97509 18.1781 8.44308 18.6056 8.59072L16.346 19.959L15.2561 7.43189C15.7564 7.34553 16.1393 6.83854 16.1393 6.22291C16.1393 5.54878 15.6766 5 15.1105 5C14.5444 5 14.0794 5.54878 14.0794 6.22291C14.0794 6.83854 14.4669 7.34832 14.9672 7.43189L13.8797 19.9367L11.6225 8.59072C12.0547 8.44587 12.3765 7.97509 12.3765 7.41517C12.3765 6.73825 11.9137 6.19226 11.3453 6.19226C10.7769 6.19226 10.3165 6.73825 10.3165 7.41517C10.3165 8.09209 10.7769 8.63529 11.3453 8.63529H11.3618L11.9067 20.2599L8.5009 11.6187C8.83209 11.4154 9.05992 11.0059 9.05992 10.5323C9.05992 9.8582 8.59955 9.31221 8.02879 9.31221C7.45802 9.31221 7 9.86098 7 10.5323C7 11.2037 7.46037 11.7552 8.02879 11.7552" fill="white"/>
</svg>
