<svg width="30" height="30" viewBox="0 0 30 30" fill="none" xmlns="http://www.w3.org/2000/svg">
<g clip-path="url(#clip0_9478_27484)">
<path fill-rule="evenodd" clip-rule="evenodd" d="M1 14.9448H2.69102V15.5449H2.1633V16.5551H4.07387V15.5449H3.51919V14.9448H5.23717V15.5449H4.68249V18.5223H5.23717V19.1224H3.51919V18.5223H4.07387V17.1589H2.1633V18.5223H2.69102V19.1224H1V18.5223H1.52772V15.5449H1V14.9448Z" fill="white"/>
<path fill-rule="evenodd" clip-rule="evenodd" d="M21.1343 14.9448H24.5664V16.1183H23.9847V15.5449H22.3245V16.5551H23.7652V17.1285H22.3245V18.5223H23.9847V17.7286H24.5933V19.1224H21.1343V18.5223H21.689V15.5449H21.1343V14.9448Z" fill="white"/>
<path fill-rule="evenodd" clip-rule="evenodd" d="M6.01123 14.9448H9.50112V16.1183H8.89251V15.5449H7.20149V16.5551H8.64213V17.1285H7.20149V18.5223H8.86554V17.7286H9.50112V19.1224H6.01123V18.5223H6.59288V15.5449H6.01123V14.9448Z" fill="white"/>
<path fill-rule="evenodd" clip-rule="evenodd" d="M22.1318 14.3979H23.376L23.6803 14.7549H22.4631L22.1318 14.3979Z" fill="white"/>
<path fill-rule="evenodd" clip-rule="evenodd" d="M27.9756 16.7185C27.5596 16.635 27.2553 16.635 26.8123 16.4983C26.4232 16.3616 26.3693 16.1451 26.3693 16.0084C26.3693 15.8185 26.508 15.4349 27.1435 15.4349C27.7791 15.4349 28.1682 15.8185 28.1682 16.1717H28.7768V14.945H28.1951V15.2184L28.2221 15.302C28.2221 15.302 28.1951 15.2488 28.1374 15.2184V15.1918C27.9717 15.0551 27.6096 14.8652 27.0858 14.8652C26.4772 14.8652 25.7299 15.2488 25.7299 16.0122C25.7299 16.7223 26.2576 16.9692 26.7006 17.0755C27.1435 17.2123 27.3939 17.2123 27.7522 17.2958C28.1412 17.4059 28.3608 17.6224 28.3608 17.9528C28.3608 18.2528 28.1682 18.663 27.3901 18.663C26.612 18.663 26.2807 18.2528 26.1728 17.6528H25.6182V19.1263H26.1998V18.8529L26.1728 18.7731C26.1728 18.7731 26.1998 18.8263 26.2846 18.8529V18.8795C26.5619 19.0997 26.9779 19.2631 27.4479 19.2631C28.0295 19.2631 29.0002 18.963 29.0002 17.9794C29.0002 17.2426 28.6111 16.916 27.9756 16.7223V16.7185Z" fill="white"/>
<path fill-rule="evenodd" clip-rule="evenodd" d="M19.7785 18.5223V15.5449H20.3293V14.9448H18.8078L17.7831 17.402L17.7562 17.5121L17.7254 17.402L16.7315 14.9448H15.1792V15.5449H15.7339V18.5223H15.1792V19.1224H16.8972V18.5223H16.3695V15.7917V15.6284L16.4234 15.7651L17.5867 18.5223H17.9218L19.1121 15.7651L19.139 15.6018V15.7651V18.5223H18.6152V19.1224H20.3293V18.5223H19.7785Z" fill="white"/>
<path fill-rule="evenodd" clip-rule="evenodd" d="M7.42491 13.3611H6.84326V13.1978H7.28624C7.3132 13.2243 7.39795 13.3079 7.42491 13.3611Z" fill="white"/>
<path fill-rule="evenodd" clip-rule="evenodd" d="M22.0474 13.3611C22.0474 13.2813 22.1013 13.2243 22.186 13.1978H22.4903V13.3611H22.0474Z" fill="white"/>
<path fill-rule="evenodd" clip-rule="evenodd" d="M12.4363 13.4712C12.1859 13.5813 11.8547 13.5813 11.6043 13.4712H8.55739C8.25308 13.5813 7.92181 13.5813 7.64447 13.4712H6.84326V13.7446H22.49V13.4712H12.4363Z" fill="white"/>
<path fill-rule="evenodd" clip-rule="evenodd" d="M8.72705 13.3611C8.78098 13.3345 8.89269 13.2243 8.91965 13.1978H11.2462C11.3002 13.2509 11.3579 13.3345 11.4119 13.3611H8.72705Z" fill="white"/>
<path fill-rule="evenodd" clip-rule="evenodd" d="M12.0207 13.2816C12.4098 13.2816 12.768 12.9284 12.768 12.5449C12.768 12.1347 12.4098 11.8081 12.0207 11.8081C11.6047 11.8081 11.2734 12.1347 11.2734 12.5449C11.2734 12.9284 11.6047 13.2816 12.0207 13.2816V13.4184C11.5238 13.4184 11.1348 13.0348 11.1348 12.5449C11.1348 12.055 11.5238 11.6714 12.0207 11.6714C12.5176 11.6714 12.9067 12.055 12.9067 12.5449C12.9067 13.0348 12.5176 13.4184 12.0207 13.4184V13.2816Z" fill="white"/>
<path fill-rule="evenodd" clip-rule="evenodd" d="M9.11213 12.4345C9.11213 11.8876 8.64219 11.4243 8.0875 11.4243C7.53282 11.4243 7.08984 11.8876 7.08984 12.4345C7.08984 12.9814 7.53282 13.4181 8.0875 13.4181C8.64219 13.4181 9.11213 12.9814 9.11213 12.4345H8.94649C8.94649 12.8979 8.55745 13.2814 8.0875 13.2814C7.61756 13.2814 7.22851 12.8979 7.22851 12.4345C7.22851 11.9408 7.61756 11.5876 8.0875 11.5876C8.55745 11.5876 8.94649 11.9408 8.94649 12.4345H9.11213Z" fill="white"/>
<path fill-rule="evenodd" clip-rule="evenodd" d="M12.4941 13.0349L12.1898 12.7083V12.6817C12.2077 12.664 12.2167 12.6463 12.2167 12.6285L12.6867 12.7653C12.6867 12.7653 12.7406 12.7653 12.7406 12.7918C12.7406 12.7653 12.7406 12.7083 12.7676 12.6817C12.7406 12.7083 12.7136 12.7083 12.6867 12.7083L12.2707 12.5716H12.2437V12.488L12.6867 12.3247H12.7406L12.6867 12.2412L12.2167 12.431C12.2167 12.4045 12.1898 12.3779 12.1898 12.3779C12.1898 12.3779 12.1628 12.3513 12.1898 12.3513L12.4132 11.9981C12.4402 11.9715 12.4671 11.9449 12.4979 11.9449C12.471 11.9449 12.4132 11.9183 12.3862 11.8918V11.9449L12.1358 12.3285H12.055V12.3019L12.028 11.8652C12.028 11.8386 12.028 11.812 12.055 11.812H11.9432L11.9702 11.8652V12.3285C11.9702 12.3285 11.9432 12.3285 11.9163 12.3551V12.3285L11.612 12.0019V11.9183C11.585 11.9449 11.5272 12.0019 11.5003 12.0019C11.5272 12.0019 11.5542 12.0285 11.585 12.0285L11.8624 12.3817C11.8354 12.3817 11.8354 12.4348 11.8354 12.4348C11.8354 12.4348 11.8354 12.4614 11.8084 12.4614L11.3655 12.3247C11.3385 12.3247 11.3385 12.2981 11.3385 12.2715C11.3385 12.2981 11.3115 12.3817 11.3115 12.3817H11.3655L11.7815 12.4918C11.8084 12.4918 11.8084 12.5184 11.8084 12.5184V12.6019L11.3655 12.7653C11.3655 12.7653 11.3385 12.7918 11.3385 12.7653C11.3385 12.7918 11.3385 12.8488 11.3655 12.8754C11.3655 12.8488 11.3924 12.8222 11.3924 12.8222L11.8354 12.6589C11.8354 12.6589 11.8624 12.6855 11.8624 12.7121H11.8893L11.612 13.0957L11.585 13.1222C11.585 13.1488 11.6389 13.1754 11.6698 13.1754C11.6428 13.1754 11.6698 13.1488 11.6698 13.1222L11.9201 12.769C11.9201 12.7425 11.9471 12.7425 11.9471 12.7425C11.9471 12.769 11.9741 12.769 11.9741 12.769H12.001L12.028 13.2324C12.028 13.2324 12.028 13.2855 12.001 13.2855H12.1127C12.0858 13.2855 12.0858 13.2324 12.0858 13.202L12.0588 12.7653H12.0858C12.0858 12.7653 12.1127 12.7387 12.1397 12.7121C12.1397 12.7121 12.1667 12.7121 12.1667 12.7387L12.471 13.0653V13.1488C12.4979 13.1222 12.5249 13.0653 12.5557 13.0653C12.5287 13.0653 12.5018 13.0387 12.5018 13.0387L12.4941 13.0349Z" fill="white"/>
<path fill-rule="evenodd" clip-rule="evenodd" d="M8.06047 11.861C8.47648 11.861 8.91946 11.8876 9.16984 11.9711C9.1968 11.9711 9.1968 11.9977 9.16984 12.0243C8.91946 12.0775 8.47648 12.1344 8.09129 12.1344C7.67527 12.1344 7.25926 12.1344 6.98192 12.0509C6.95495 12.0509 6.95495 12.0243 6.98192 12.0243C7.2323 11.9408 7.64831 11.861 8.06047 11.861V11.7812C7.61749 11.7812 7.14755 11.8914 6.7585 12.0281C6.73154 12.0547 6.73154 12.0813 6.7585 12.0813C7.20148 12.1914 7.64446 12.1914 8.08744 12.1914C8.50345 12.1648 8.97339 12.1382 9.3894 12.0281C9.44333 12.0015 9.41637 11.9749 9.3894 11.9749C9.00035 11.8648 8.53041 11.785 8.06047 11.785V11.8648V11.861Z" fill="white"/>
<path fill-rule="evenodd" clip-rule="evenodd" d="M12.6023 11.5609C12.4906 11.6141 12.298 11.6711 12.2132 11.6711H11.4929C11.1308 11.6711 11.1308 11.7243 11.1039 11.6977C11.0191 11.5609 10.9652 11.3976 10.8535 11.2875C10.1332 11.4242 9.41286 11.3141 8.77728 11.0976V10.9875C8.83121 11.0141 8.85817 11.0141 8.88899 11.0141C8.77728 10.8508 8.58468 10.7938 8.47298 10.6305C8.41905 10.6039 8.41905 10.5204 8.36127 10.4672C8.36127 10.6305 8.2226 10.7406 8.2226 10.8773C8.30734 10.9039 8.4152 10.9039 8.47298 10.9039C8.5269 10.8773 8.61165 10.9039 8.63861 10.9305C8.69254 10.9571 8.72335 10.9837 8.77728 10.9837V11.0938C8.69254 11.0672 8.69254 11.0407 8.61165 11.0103C8.55772 11.0369 8.47298 11.0369 8.47298 11.0103C8.44601 10.9837 8.28038 10.9837 8.2226 10.9837C8.03 10.9837 7.80658 11.0634 7.69488 11.2305C7.66791 11.3141 7.66791 11.4204 7.72184 11.504C7.74881 11.5571 7.88748 11.7508 7.99918 11.804L7.86051 11.8306C7.66791 11.6673 7.52924 11.504 7.55621 11.3103C7.66791 10.9001 8.05311 10.9571 8.16482 10.7634C8.24956 10.6001 8.27653 10.1368 8.19178 9.97348C7.91444 9.88993 7.61013 9.75321 7.52539 9.45319C7.52539 9.36963 7.55235 9.28988 7.6371 9.2633C7.77577 9.23671 7.85666 9.31647 7.96837 9.37343C7.99533 9.32026 7.91444 9.21013 8.02229 9.21013C8.16097 9.21013 8.24571 9.51015 8.29964 9.51015L8.27267 9.62029C8.19178 9.5937 7.85666 9.40002 7.8297 9.40002C7.77577 9.37343 7.69103 9.31647 7.6371 9.37343C7.58317 9.45698 7.66406 9.53674 7.69103 9.62029C8.41134 10.3571 9.6016 9.56712 10.4067 10.0836C10.4067 10.057 10.4067 10.0304 10.3527 10.0304C9.82502 9.51015 8.96988 9.78359 8.27653 9.62029L8.30349 9.51015C9.16248 9.73042 10.2988 9.37343 10.7418 10.3305C11.0191 10.7406 11.3234 11.3938 11.959 11.4242C12.4598 11.4242 12.791 11.2343 13.0376 10.8773C13.3688 10.2773 13.5653 9.56712 14.1739 9.15696C14.2278 9.13038 14.2586 9.15696 14.2278 9.18354C13.9505 9.45698 13.6731 9.84056 13.5345 10.1672C13.7848 11.0141 14.2818 10.8508 14.3935 10.8242C14.3665 10.5242 14.3935 9.56712 15.0868 9.35065C15.2524 9.21393 15.7802 8.88732 16.5275 9.18734C15.9728 9.67725 15.6415 10.3874 15.5568 10.8811L14.9481 11.0445C15.0021 10.9609 15.0021 10.7976 14.9751 10.6343C14.9212 10.6609 14.8634 10.714 14.7247 10.7976C14.6708 10.7976 14.6978 10.714 14.6978 10.714C14.6978 10.6875 14.8634 10.6343 14.9751 10.5507C14.9481 10.1938 14.9212 9.7608 15.1947 9.45698C14.5861 9.64687 14.7787 10.9039 14.8364 11.0407C14.6708 11.1242 14.4204 11.1242 14.4204 11.1242L14.3935 10.9039C14.1431 11.0141 13.7001 10.9305 13.5075 10.2773C13.2879 10.714 13.0915 11.3976 12.5946 11.5609H12.6023Z" fill="white"/>
<path fill-rule="evenodd" clip-rule="evenodd" d="M21.9354 9.73063C21.9084 9.70405 21.8815 9.70405 21.8545 9.70405C21.8545 9.67746 21.8545 9.65088 21.8815 9.65088C21.8815 9.65088 21.9084 9.65088 21.9354 9.70405C21.9623 9.70405 21.9623 9.73063 21.9354 9.73063Z" fill="white"/>
<path fill-rule="evenodd" clip-rule="evenodd" d="M8.25705 12.6511L8.56135 13.0043C8.58832 13.0309 8.58832 13.0878 8.58832 13.0878C8.61528 13.0878 8.70002 13.0043 8.72699 12.9777C8.70002 13.0043 8.64224 13.0043 8.61528 12.9511L8.28401 12.5979V12.5714H8.31097C8.31097 12.5448 8.33794 12.5448 8.33794 12.5448L8.80788 12.7081C8.83484 12.7347 8.86181 12.7612 8.86181 12.7916C8.86181 12.765 8.91573 12.6549 8.91573 12.6283C8.91573 12.6549 8.86181 12.6549 8.83099 12.6549L8.36105 12.4916C8.34307 12.4916 8.33409 12.4827 8.33409 12.465V12.4384H8.36105L8.83099 12.3549C8.91573 12.3283 8.9427 12.3549 8.9427 12.3815C8.9427 12.3549 8.91573 12.2447 8.91573 12.2182C8.91573 12.2447 8.88877 12.2713 8.83099 12.2713L8.36105 12.3549H8.33409C8.33409 12.3372 8.3251 12.3194 8.30712 12.3017V12.2751L8.69617 11.9751C8.72314 11.9485 8.78092 11.9485 8.80788 11.9485C8.78092 11.9219 8.69617 11.865 8.66921 11.8118C8.69617 11.8384 8.66921 11.8953 8.64224 11.9219L8.28016 12.2485H8.25319C8.25319 12.2485 8.22623 12.2485 8.22623 12.222C8.22623 12.222 8.19927 12.1954 8.22623 12.1954L8.39187 11.732C8.39187 11.6789 8.44579 11.6789 8.47276 11.6789C8.41883 11.6789 8.33409 11.6257 8.28016 11.6257C8.30712 11.6257 8.33409 11.6789 8.33409 11.7093L8.14149 12.1726V12.1992H8.08756V12.1726L8.00667 11.6827V11.5991C8.00667 11.5991 7.89496 11.6257 7.84103 11.6257C7.868 11.6257 7.89496 11.6789 7.92578 11.7093L8.01052 12.1726V12.1992C8.01052 12.1992 7.98356 12.2258 7.95659 12.2258L7.62532 11.8726C7.5714 11.8194 7.5714 11.7624 7.59836 11.7624C7.5714 11.789 7.48665 11.846 7.45969 11.8726C7.48665 11.8726 7.54443 11.8726 7.5714 11.8991L7.90267 12.2523V12.2789L7.8757 12.3055H7.84874L7.40576 12.1422C7.35183 12.1422 7.32102 12.089 7.32102 12.0587C7.32102 12.1118 7.29405 12.1954 7.26709 12.2485C7.29405 12.222 7.32102 12.1954 7.3788 12.222L7.84874 12.3587V12.4422L7.35183 12.522C7.32487 12.522 7.26709 12.4954 7.26709 12.4954C7.26709 12.522 7.26709 12.6321 7.29405 12.6587C7.29405 12.6587 7.32102 12.6055 7.3788 12.6055L7.84874 12.4954V12.522L7.8757 12.5486V12.5751L7.48665 12.8486C7.43272 12.9018 7.40576 12.9018 7.40576 12.8752C7.40576 12.9283 7.45969 13.0119 7.48665 13.0119C7.48665 13.0119 7.48665 12.9587 7.51362 12.9321L7.90267 12.6321C7.90267 12.6144 7.91165 12.6144 7.92963 12.6321C7.92963 12.6321 7.95659 12.6321 7.95659 12.6587H7.98356L7.81792 13.122C7.79096 13.1752 7.76399 13.2056 7.73318 13.1752C7.76014 13.2018 7.84489 13.2284 7.89881 13.2284C7.87185 13.2284 7.84489 13.2018 7.87185 13.1448L8.03748 12.6815V12.6549C8.06445 12.6815 8.09141 12.6815 8.09141 12.6815C8.09141 12.6815 8.11838 12.6815 8.11838 12.7081L8.20312 13.1714C8.20312 13.2246 8.17616 13.2549 8.14919 13.2815C8.20312 13.2815 8.28786 13.2284 8.34179 13.2284C8.31483 13.2284 8.25705 13.2018 8.25705 13.1752L8.1723 12.6853V12.6587H8.22623C8.22623 12.641 8.23522 12.641 8.25319 12.6587L8.25705 12.6511Z" fill="white"/>
<path fill-rule="evenodd" clip-rule="evenodd" d="M21.7158 9.7837V9.75711C21.7338 9.72166 21.7428 9.68495 21.7428 9.64698C21.658 9.59381 21.658 9.48367 21.7158 9.45709C21.7428 9.40392 21.9084 9.45709 21.9084 9.45709C22.0471 9.37354 22.101 9.29378 22.1588 9.23682C22.2705 9.23682 22.4901 9.4267 22.4901 9.56342C22.4631 9.59001 22.3784 9.67356 22.2397 9.83686C22.2936 9.947 22.2936 10.0002 22.2127 10.0533C22.2127 10.0533 22.1858 10.0533 22.1588 10.0268C22.1588 10.1901 22.3244 10.2736 22.4092 10.4103C22.4092 10.6306 22.6595 10.9306 22.3552 11.1205C22.3013 11.1737 22.2435 11.2003 22.2166 11.2838C22.2435 11.5003 22.3552 11.7737 22.4092 12.0206L22.1049 12.0472C22.0779 12.1307 21.9932 12.294 22.0201 12.3738C22.074 12.4573 22.1049 12.9472 22.074 13.0004C22.074 13.0536 22.128 13.0536 22.101 13.1637C22.0471 13.1637 21.9354 13.2473 21.9084 13.2738C21.8545 13.3536 21.6311 13.384 21.6311 13.3536C21.6311 13.2738 21.7697 13.1903 21.8237 13.0802C21.8506 12.727 21.8237 12.37 21.6311 12.07C21.5463 12.0434 21.4654 12.1497 21.4385 12.2333C21.5194 12.4535 21.658 12.6966 21.6311 12.9434C21.6311 13.0232 21.712 13.1333 21.658 13.2169L21.4385 13.3536H20.5525C20.4986 13.3004 20.4678 13.2738 20.4678 13.1903H21.2728C21.2728 13.1637 21.3268 13.1903 21.4115 13.0536C21.4115 12.7004 21.0494 12.1801 21.0802 11.9902C21.165 11.7699 21.2728 11.58 21.4115 11.28H21.4654C21.3268 11.7168 21.1342 11.9332 21.1611 12.0737C21.1611 12.1535 21.1881 12.2371 21.2459 12.3206L21.2728 12.4042C21.2998 12.4573 21.3268 12.5675 21.3845 12.594C21.4115 12.594 21.4385 12.5675 21.4693 12.5409C21.4693 12.4877 21.4423 12.4042 21.4154 12.351L21.2767 12.4042L21.2497 12.3206C21.3306 12.3206 21.4154 12.2371 21.3306 12.2105C21.554 12.1003 21.2767 12.1307 21.3576 12.0737C21.4693 12.0206 21.5502 11.8003 21.5502 11.6636C21.5502 11.637 21.5771 11.6104 21.6041 11.6104C21.685 11.8573 21.685 12.1839 21.8545 12.4042V12.4877C21.8275 12.5409 21.8545 12.6244 21.8814 12.651C22.0201 12.6776 21.9932 12.651 21.9623 12.4877C21.9354 12.4877 21.8814 12.4611 21.8506 12.4877V12.4042C21.8506 12.3776 21.9046 12.4042 21.9315 12.3776C21.8776 12.3244 21.8776 12.2409 21.8776 12.1877C21.8776 12.1345 21.9046 12.051 21.9585 12.2409C21.9855 12.2409 22.0702 11.8877 22.0972 11.7775C21.7929 11.8307 22.0972 11.5041 21.8776 11.4775L21.9893 11.3142C21.9893 11.2306 21.9354 11.2041 21.8506 11.2306L21.7967 11.1471C21.7428 11.1205 21.712 11.0635 21.658 11.0104C21.6041 11.0635 21.5194 11.1471 21.5194 11.2003C21.4924 11.2268 21.5463 11.2268 21.5463 11.2268C21.6003 11.1737 21.6311 11.28 21.712 11.2534C21.7389 11.2268 21.8237 11.2003 21.7967 11.1433L21.8506 11.2268C21.7967 11.2534 21.7967 11.3636 21.7967 11.4471C21.685 11.637 21.7428 11.337 21.6311 11.337C21.5463 11.3636 21.5194 11.2534 21.4654 11.2838H21.4115V10.9306C21.4963 10.4407 21.6041 10.4407 21.6349 10.304C21.6349 10.2204 21.8583 10.1141 21.8275 10.0571C21.8545 10.0571 21.8814 10.0837 21.8814 10.1103C21.8545 10.1901 21.7158 10.1901 21.7158 10.3572C21.8275 10.1939 22.0779 10.1939 22.1049 10.004C22.0509 9.89383 22.1588 9.97738 22.1588 9.84066C22.1318 9.81408 22.0201 9.73053 22.0201 9.67736C21.9932 9.65077 22.0471 9.56722 21.8545 9.56722C21.8275 9.59381 21.8275 9.67736 21.7697 9.73053C21.7697 9.73053 21.7428 9.75711 21.7428 9.7837C21.7428 9.7837 21.7697 9.81028 21.7697 9.86725C21.7697 9.9508 21.7697 9.97738 21.8237 9.97738C21.9354 10.0571 22.0163 9.97738 21.8776 10.0571V10.1103C21.8776 10.0837 21.8237 10.0268 21.8237 10.0268C21.7967 10.0268 21.712 9.97358 21.7389 9.91662C21.7389 9.86345 21.7389 9.83686 21.712 9.7799L21.7158 9.7837Z" fill="white"/>
<path fill-rule="evenodd" clip-rule="evenodd" d="M17.6174 9.21045C17.6174 9.32058 17.5635 9.40034 17.5635 9.51047C17.6752 9.75733 17.5635 9.9738 17.5905 10.1941C17.4788 10.1409 17.4518 9.94722 17.3979 9.73074C17.3709 9.54086 17.3979 9.48389 17.4249 9.294L17.6174 9.21045Z" fill="white"/>
<path fill-rule="evenodd" clip-rule="evenodd" d="M17.2824 9.294C17.2555 9.62061 17.2285 9.75733 17.4481 10.2776C16.8664 10.5245 16.3965 10.6612 15.7031 10.8777C15.7879 10.3878 16.2578 9.4573 16.6738 9.21045C17.0051 9.294 17.2824 9.294 17.2824 9.294Z" fill="white"/>
<path fill-rule="evenodd" clip-rule="evenodd" d="M15.7876 12.8448C15.622 12.8979 15.622 12.9815 15.7337 13.065C15.7876 13.1182 15.8454 13.2017 15.8454 13.2017H14.8747C14.8747 13.2549 14.9287 13.2853 14.9556 13.365H20.3561C20.3831 13.2853 20.3022 13.2017 20.2713 13.0916C19.8823 12.9549 19.8823 12.6283 19.8823 12.2447C19.8823 12.2181 19.8284 12.1612 19.8284 12.0814C19.8014 12.0282 19.5241 11.4244 19.6627 10.9079L19.7475 10.7446C19.8322 10.6344 19.7205 10.5813 19.8014 10.4711L20.9377 10.2509C20.9377 10.2243 20.9377 10.1977 20.9108 10.1673L19.8014 10.3572C19.8823 10.0838 19.6358 10.004 19.7167 9.78375C19.8823 9.94705 20.2983 10.2205 20.4909 10.2737H20.6026C20.3522 10.1369 19.8553 9.8635 19.578 9.47993C19.551 9.47993 19.5241 9.45334 19.4932 9.42676C19.4932 9.45334 19.5472 9.56348 19.5472 9.56348C19.5472 9.56348 19.3546 9.7002 19.0195 9.53689C18.9077 9.75716 17.7175 10.2737 17.7175 10.2737C17.7714 10.6003 17.9101 10.8205 18.0757 11.0104C18.0488 10.9838 18.1027 11.037 18.0757 11.0104C18.3261 11.2003 18.6304 11.2839 18.9347 11.337C18.9886 11.5269 19.239 12.1308 19.239 12.2105C19.2929 12.2941 19.3238 12.2941 19.3238 12.2941C19.3507 12.3207 19.4624 12.5105 19.4624 12.5941L19.4894 12.9207C19.5164 13.0005 19.6011 12.9207 19.6281 13.0005L19.5741 13.1903H19.7976C19.6858 13.0802 19.7706 12.9169 19.605 12.8372C19.578 12.6473 19.578 12.5105 19.4932 12.4536C19.4393 12.2637 19.2429 11.77 19.1042 11.3332L19.1889 11.2231C18.8577 11.3332 18.6073 11.1965 18.303 11.0332C18.0526 10.9231 18.1913 11.0332 18.276 10.98C18.6381 11.1433 18.8307 11.0902 19.108 11.0902C19.135 11.1168 19.1928 11.1737 19.1928 11.2269L19.108 11.337C19.1928 11.2839 19.2467 11.3105 19.3006 11.5269C19.3546 11.6902 19.4393 11.8535 19.4663 11.9903C19.5202 12.127 19.578 12.3434 19.6319 12.4536C19.6319 12.4536 19.6589 12.4536 19.6858 12.5067C19.7976 12.8334 19.8245 12.8903 19.8245 13.027C19.8515 13.1638 20.0171 13.0536 20.0171 13.1903H15.9725C16.0265 12.9435 15.8878 12.7536 15.9725 12.5067C15.8339 12.2599 15.4448 12.0966 15.5026 11.77C15.6952 11.4965 16.2768 11.2497 16.1382 10.9497C16.6929 10.6762 16.9702 11.113 17.4671 11.0864C17.6597 11.0864 17.8562 11.0598 18.0218 11.0028C17.8292 10.8395 17.6327 10.5927 17.5249 10.3458C16.4463 10.7826 15.4179 11.1396 14.2584 11.356L14.1737 11.3294C14.062 11.356 12.317 11.7396 12.3748 11.8194C11.7123 11.8725 10.9611 12.1194 10.7955 12.2295C10.7107 12.2561 10.7107 12.3131 10.7955 12.3396C11.4888 12.503 12.0705 12.3662 13.176 11.9865L13.0913 11.9029C13.0373 11.9561 12.1475 12.2561 11.7893 12.3131C11.4311 12.3396 11.0959 12.3396 10.9303 12.2865C10.9123 12.2688 10.9123 12.2599 10.9303 12.2599C11.6237 11.9865 12.9526 11.7396 13.1182 11.9865C13.2299 12.013 13.3108 12.07 13.3686 12.1232C13.4225 12.2333 13.5612 12.1763 13.646 12.1763C13.7846 12.1232 13.7846 12.0396 13.7846 11.9295L13.646 11.9029C13.592 11.9029 13.3416 11.9295 13.3147 11.9865C13.2299 11.9029 13.1221 11.8232 13.0104 11.7966C13.2608 11.6864 13.646 11.6067 13.8694 11.5763C13.6768 11.713 13.7577 11.8763 13.646 11.9029L13.7846 11.9295C13.7846 11.8763 13.7846 11.8194 13.8116 11.7928C13.9503 11.4662 14.5319 11.4092 14.8362 11.3294C14.8362 11.3294 14.6706 11.5497 14.5858 11.5763C14.5319 12.0396 14.3663 12.4498 14.3355 12.9131C14.4741 12.9131 14.4741 13.0764 14.5011 13.16C14.4741 13.2435 14.3894 13.16 14.3355 13.1865C14.112 13.0764 14.3894 12.8865 14.2237 12.7498C14.3085 12.3662 14.4472 11.9865 14.4472 11.6029C14.3932 11.6029 14.3624 11.656 14.3355 11.6864C14.2815 12.07 14.1968 12.4232 14.0851 12.7802C14.112 12.8068 14.1968 12.8334 14.1968 12.8903C14.0851 12.9701 14.1968 13.1068 14.1429 13.1903H12.7561L12.6175 13.3537H14.7207L14.7476 13.2739C14.4433 12.9473 14.555 12.4536 14.6937 12.1004L15.0519 11.6105C15.3832 11.5003 15.5488 11.1206 15.8839 11.0104C15.8839 11.1737 15.6913 11.2307 15.5796 11.337C15.441 11.5839 15.1097 11.6105 15.0519 11.9105C15.1906 12.0472 15.3832 12.1574 15.5488 12.2941C15.7145 12.4042 15.6875 12.6207 15.7992 12.7308C15.8262 12.7574 15.7992 12.8106 15.7722 12.841L15.7876 12.8448Z" fill="white"/>
<path fill-rule="evenodd" clip-rule="evenodd" d="M18.1142 7.41012C18.0603 7.49367 17.9486 7.54684 18.0295 7.71015C17.8639 7.82028 17.9178 7.93042 17.9486 8.01017C17.8947 8.09372 17.8369 8.25703 17.9486 8.33678C17.8369 8.4735 17.9756 8.58363 18.0295 8.6368C17.9486 8.77352 18.0295 8.88366 18.0295 8.88366C18.0025 8.96721 17.8369 9.13051 17.7791 9.1571C17.6944 9.40395 17.7252 9.86728 17.7252 10.1673C18.1682 9.97741 18.5842 9.75714 18.9154 9.4837C18.6381 9.29382 18.3877 8.82669 18.0834 8.82669C18.0565 8.50008 17.9178 7.92662 18.3877 7.32657C18.4417 7.29999 18.5264 7.2734 18.5803 7.24302C18.3877 7.21644 18.1104 7.32657 17.9448 7.24302C17.9448 7.24302 18.0256 7.37974 18.1104 7.40633L18.1142 7.41012Z" fill="white"/>
<path fill-rule="evenodd" clip-rule="evenodd" d="M19.1391 7.24685C19.1391 7.27344 19.2238 7.30002 19.2238 7.30002L19.2777 7.27344C19.2777 7.24685 19.3047 7.22027 19.2777 7.18989C19.2508 7.18989 19.2238 7.1633 19.193 7.1633L19.1391 7.24685L19.1121 7.27344L18.8887 7.13672L18.9426 7.11014C18.9426 7.11014 19.0273 7 19.0813 7C19.1082 7 19.3586 7 19.4434 7.05317C19.4703 7.10634 19.4973 7.13672 19.5551 7.24306C19.7207 7.35319 20.025 7.35319 20.1637 7.48991C20.1367 7.54308 20.2176 7.60005 20.1637 7.65322C20.1098 7.65322 20.025 7.62663 19.998 7.65322L19.9711 7.73677H19.9172C19.9172 7.73677 19.9441 7.62663 19.9172 7.62663C19.8902 7.60005 19.8324 7.57346 19.8054 7.60005C19.7785 7.60005 19.8054 7.62663 19.8054 7.65322C19.8054 7.6798 19.8863 7.70638 19.9172 7.6798L20.0019 7.70638H20.0866C20.0327 7.78994 20.0327 7.81652 19.921 7.78994C19.894 7.87349 20.0597 7.92666 20.0866 7.95324C20.0597 7.97982 20.0327 8.00641 19.921 7.95324C19.921 7.95324 19.478 8.3634 19.2276 8.50012C18.9503 8.61025 19.2007 8.44695 19.2007 8.44695C19.3394 8.39378 19.8671 7.92666 19.8671 7.90007C19.8401 7.87349 19.8131 7.81652 19.8131 7.76335C19.7284 7.73677 19.5897 7.78994 19.5358 7.81652C19.5628 7.95324 19.8131 8.63684 19.6205 9.64704L19.5936 9.62046C19.7592 8.63684 19.4819 7.8469 19.4819 7.8469C19.3432 7.90007 19.2315 7.8469 19.1506 7.87349C19.1236 8.47353 19.6205 8.58367 19.4549 9.40399C18.9002 9.29385 18.515 8.64064 18.2069 8.72039C18.2069 8.61025 18.0952 8.42037 18.2069 8.3672C18.1799 8.28744 18.1221 8.14693 18.2916 8.06717C18.2377 7.95704 18.2069 7.8469 18.3455 7.76715C18.3186 7.6836 18.3186 7.52029 18.5112 7.49371C18.5112 7.35699 18.5651 7.24685 18.7038 7.22027C18.5651 7.13672 18.5381 7 18.5381 7C18.6499 7.08355 18.7616 7.13672 18.9542 7.11014L19.1468 7.24685H19.1391Z" fill="white"/>
<path fill-rule="evenodd" clip-rule="evenodd" d="M13.9621 18.5223L13.9351 17.6754C13.9351 17.4286 13.7695 17.1551 13.5461 17.0184C13.4922 16.9918 13.4344 16.9652 13.3535 16.9652C13.4382 16.9652 13.4922 16.9652 13.5731 16.9387C13.7926 16.8285 14.07 16.5285 14.07 16.0386C14.07 15.655 13.9043 15.3854 13.654 15.1917C13.3766 15.0018 13.0993 14.9448 12.795 14.9448H10.4414V15.5449H10.9691V18.5223H10.4414V19.1224H12.1016V18.5223H11.5739V17.2121H12.7372C13.1262 17.2387 13.2919 17.4855 13.2919 17.702L13.3458 19.1224H14.4821V18.5223H13.9544H13.9621ZM12.8527 16.6386H11.5777V15.5449H12.795C12.9336 15.5449 13.0723 15.5449 13.211 15.598C13.3496 15.6778 13.4883 15.8449 13.4883 16.088C13.4883 16.4146 13.211 16.6348 12.8527 16.6348V16.6386Z" fill="white"/>
<path fill-rule="evenodd" clip-rule="evenodd" d="M10.2216 20.5962C10.7763 20.5962 11.0228 20.8962 11.0228 21.2798C11.0228 21.6634 10.7454 21.9368 10.1638 21.9368H9.77474V22.9736H9.4165V20.6H10.2177L10.2216 20.5962ZM9.77859 21.633H10.1946C10.4719 21.633 10.6645 21.4963 10.6645 21.2494C10.6645 21.0861 10.5528 20.8962 10.2216 20.8962H9.77859V21.633Z" fill="white"/>
<path fill-rule="evenodd" clip-rule="evenodd" d="M13.7654 22.9733H13.3764L13.0721 22.2631H12.0205L11.7162 22.9733H11.3271L12.4057 20.5693H12.6561L13.7654 22.9733ZM12.1592 21.9365H12.9334L12.5174 21.0061L12.1553 21.9365H12.1592Z" fill="white"/>
<path d="M17.783 20.5962H17.4209V22.9698H17.783V20.5962Z" fill="white"/>
<path fill-rule="evenodd" clip-rule="evenodd" d="M20.3024 21.1162C20.0828 20.9263 19.8594 20.8694 19.6668 20.8694C19.4434 20.8694 19.2508 20.9795 19.2508 21.1428C19.2508 21.6061 20.3871 21.5795 20.3871 22.3733C20.3871 22.7265 20.0828 22.9999 19.6668 22.9999C19.3895 22.9999 19.1391 22.9467 18.9195 22.7796V22.3429C19.1121 22.5632 19.3625 22.6961 19.6399 22.6961C19.9172 22.6961 20.0559 22.5062 20.0559 22.3961C20.0559 21.9062 18.8926 21.8492 18.8926 21.196C18.8926 20.7858 19.2238 20.5693 19.6976 20.5693C19.9211 20.5693 20.1137 20.5959 20.3063 20.7326V21.1162H20.3024Z" fill="white"/>
<path fill-rule="evenodd" clip-rule="evenodd" d="M16.2884 22.7002C16.2345 22.6166 16.2037 22.5634 16.1497 22.4799C15.9841 22.1799 15.8185 21.99 15.595 21.8533C15.8724 21.7431 16.0111 21.5266 16.0111 21.2532C16.0111 20.843 15.7068 20.5962 15.179 20.5962H14.5435V22.9698H14.9325V21.933H15.0712C15.2638 21.933 15.4024 21.9862 15.7376 22.4799L16.0688 22.9698H16.4849L16.2923 22.6964L16.2884 22.7002ZM15.1521 21.6368H14.9325V20.9H15.1521C15.5142 20.9 15.622 21.0101 15.622 21.2532C15.649 21.4431 15.5411 21.6368 15.1521 21.6368Z" fill="white"/>
</g>
<defs>
<clipPath id="clip0_9478_27484">
<rect width="28" height="16" fill="white" transform="translate(1 7)"/>
</clipPath>
</defs>
</svg>
