<svg width="20" height="20" viewBox="0 0 20 20" fill="none" xmlns="http://www.w3.org/2000/svg">
<path d="M4.63692 12.9685C4.80901 13.1213 4.82466 13.3846 4.67188 13.5567C4.5191 13.7288 4.25575 13.7444 4.08366 13.5917C3.02684 12.6534 2.20589 11.4753 1.69225 10.1506C1.65467 10.0537 1.65467 9.94627 1.69225 9.84936C3.40679 5.42764 8.28299 3.1306 12.7701 4.60439C12.9888 4.6762 13.1078 4.91164 13.036 5.13027C12.9642 5.3489 12.7287 5.46792 12.5101 5.39611C8.49478 4.0773 4.13472 6.09072 2.52935 9.99996C2.9977 11.1394 3.71918 12.1537 4.63692 12.9685ZM10.5138 6.70649C10.7412 6.7419 10.8968 6.95492 10.8614 7.1823C10.826 7.40968 10.613 7.56531 10.3856 7.5299C10.2581 7.51005 10.1285 7.5 9.9974 7.5C8.61668 7.5 7.4974 8.61929 7.4974 10C7.4974 10.1297 7.50723 10.258 7.52667 10.3842C7.5617 10.6116 7.40572 10.8244 7.17829 10.8594C6.95085 10.8944 6.73808 10.7385 6.70305 10.511C6.67715 10.3429 6.66406 10.1722 6.66406 10C6.66406 8.15905 8.15645 6.66667 9.9974 6.66667C10.1714 6.66667 10.3439 6.68004 10.5138 6.70649ZM9.54398 13.3027C9.31596 13.2717 9.15629 13.0616 9.18734 12.8336C9.21838 12.6056 9.4284 12.4459 9.65641 12.477C9.76867 12.4923 9.88249 12.5 9.9974 12.5C11.3781 12.5 12.4974 11.3807 12.4974 10C12.4974 9.8987 12.4914 9.79824 12.4795 9.69895C12.4521 9.47047 12.6152 9.26305 12.8436 9.23568C13.0721 9.2083 13.2795 9.37134 13.3069 9.59982C13.3227 9.73199 13.3307 9.86555 13.3307 10C13.3307 11.8409 11.8383 13.3333 9.9974 13.3333C9.84486 13.3333 9.69347 13.3231 9.54398 13.3027ZM3.20869 17.378C3.04597 17.5407 2.78215 17.5407 2.61943 17.378C2.45672 17.2152 2.45672 16.9514 2.61943 16.7887L16.7861 2.62204C16.9488 2.45932 17.2126 2.45932 17.3754 2.62204C17.5381 2.78476 17.5381 3.04858 17.3754 3.21129L3.20869 17.378ZM15.3579 7.03151C15.1858 6.87873 15.1701 6.61538 15.3229 6.44329C15.4757 6.27121 15.739 6.25555 15.9111 6.40833C16.9679 7.34658 17.7889 8.5247 18.3025 9.84936C18.3401 9.94627 18.3401 10.0537 18.3025 10.1506C16.588 14.5724 11.7118 16.8694 7.22465 15.3956C7.00602 15.3238 6.887 15.0884 6.95881 14.8697C7.03061 14.6511 7.26606 14.5321 7.48469 14.6039C11.5 15.9227 15.8601 13.9093 17.4654 10C16.9971 8.86055 16.2756 7.84629 15.3579 7.03151Z" fill="#666666"/>
</svg>
