<svg width="98" height="21" viewBox="0 0 98 21" fill="none" xmlns="http://www.w3.org/2000/svg">
<g clip-path="url(#clip0_5146_25765)">
<path d="M38.0728 -0.0661474C37.0425 -0.0661474 36.0952 -0.0938427 35.4833 -0.121538V0.297354C37.0978 0.743942 37.5715 0.726632 37.5715 6.47342V11.6351C37.5715 14.6297 36.9907 16.6272 35.7046 17.7627H35.7184C35.7184 17.7627 34.0278 19.4764 29.9102 19.9645C30.5394 20.0061 31.1963 20.0164 31.9015 19.9749C36.9353 19.6876 38.7435 16.5164 38.7435 12.0817V6.49765C38.7435 0.750866 38.7712 0.74048 40.2751 0.293892V-0.125C39.6908 -0.0973046 39.0201 -0.0696093 38.0728 -0.0696093V-0.0661474Z" fill="#040000"/>
<path d="M23.5469 16.5372C23.9721 17.2088 25.6074 19.2306 29.6282 18.604C27.3222 17.9116 26.2678 15.9487 26.2678 11.9917V3.70734C26.2678 0.584693 26.3784 0.515455 27.6611 0.293892V-0.125C27.0491 -0.0973046 25.4311 -0.0696093 24.4008 -0.0696093C23.3706 -0.0696093 21.756 -0.0973046 21.1406 -0.125V0.293892C22.4233 0.515455 22.5339 0.584693 22.5339 3.70734V12.1025C22.5339 14.0031 22.935 15.4398 23.5469 16.5372Z" fill="#040000"/>
<path d="M15.6279 1.56265C15.8492 1.73921 16.067 1.94 16.2779 2.16157C16.8241 2.71894 17.0592 3.12052 17.0592 3.12052C17.0558 3.11359 17.0488 3.10667 17.0419 3.10321C17.5363 3.81636 17.9823 4.68877 18.3557 5.75158H18.774C18.7637 5.08689 18.7291 4.26295 18.6772 3.17591C18.6254 2.0854 18.5562 1.21992 18.4836 0.434069C16.6997 -0.154457 14.6253 -0.71875 11.3098 -0.71875C11.2302 -0.71875 11.1542 -0.715288 11.0781 -0.715288C13.2182 -0.14061 14.6806 0.773337 15.6279 1.56265Z" fill="#040000"/>
<path d="M8.33895 18.4831C5.77711 17.3164 4.09342 14.4395 4.09342 9.76942C4.09342 4.22343 6.46511 0.899984 10.1644 0.287224C9.57666 0.214524 9.00275 0.176442 8.47379 0.179904C5.68031 0.19029 3.87561 1.49543 3.43999 1.84855C1.10979 3.81838 0 6.68139 0 9.54786C0 12.1616 0.926551 14.63 2.63099 16.5167C3.42616 17.3129 5.28964 18.7219 8.33895 18.4865V18.4831Z" fill="#040000"/>
<path d="M17.3232 9.8757C16.2929 9.8757 14.6784 9.84801 14.063 9.82031V10.2392C15.3456 10.4608 15.4563 11.0493 15.4563 14.1719C15.4563 14.1719 15.477 17.1284 15.3975 17.3777C15.3629 17.4885 15.2903 17.5992 15.1935 17.71C15.1935 17.71 15.1659 17.7377 15.114 17.7896C15.0379 17.8658 14.9515 17.9385 14.8478 18.0147C14.146 18.5547 12.2929 19.6452 8.65926 19.7629H8.65234C9.40257 19.898 10.1943 19.9741 11.0275 19.9741C15.5669 19.9741 17.9109 18.2605 18.7995 17.2115C18.7995 17.2115 19.0242 16.9207 19.1002 16.5434C19.1763 16.166 19.1901 14.3416 19.1901 14.3416C19.1901 10.1804 19.3976 9.82377 19.3976 9.82377C18.7856 9.85147 18.3535 9.87917 17.3232 9.87917V9.8757Z" fill="#040000"/>
<path d="M64.9414 16.5372C65.3667 17.2088 67.002 19.2306 71.0228 18.604C68.7168 17.9116 67.6623 15.9487 67.6623 11.9917V3.70734C67.6623 0.584693 67.7729 0.515455 69.0556 0.293892V-0.125C68.4436 -0.0973046 66.8256 -0.0696093 65.7954 -0.0696093C64.7651 -0.0696093 63.1506 -0.0973046 62.5352 -0.125V0.293892C63.8178 0.515455 63.9284 0.584693 63.9284 3.70734V12.1025C63.9284 14.0031 64.3295 15.4398 64.9414 16.5372Z" fill="#040000"/>
<path d="M79.4673 -0.0661474C78.4371 -0.0661474 77.4898 -0.0938427 76.8778 -0.121538V0.297354C78.4924 0.743942 78.966 0.726632 78.966 6.47342V11.6351C78.966 14.6297 78.3852 16.6272 77.0991 17.7627H77.1129C77.1129 17.7627 75.4223 19.4764 71.3047 19.9645C71.9339 20.0061 72.5908 20.0164 73.2961 19.9749C78.3299 19.6876 80.138 16.5164 80.138 12.0817V6.49765C80.138 0.750866 80.1657 0.74048 81.6696 0.293892V-0.125C81.0853 -0.0973046 80.4146 -0.0696093 79.4673 -0.0696093V-0.0661474Z" fill="#040000"/>
<path d="M57.0224 1.56265C57.2437 1.73921 57.4615 1.94 57.6724 2.16157C58.2186 2.71894 58.4537 3.12052 58.4537 3.12052C58.4503 3.11359 58.4434 3.10667 58.4365 3.10321C58.9309 3.81636 59.3768 4.68877 59.7502 5.75158H60.1686C60.1582 5.08689 60.1236 4.26295 60.0718 3.17591C60.0199 2.0854 59.9507 1.21992 59.8781 0.434069C58.0942 -0.154457 56.0198 -0.71875 52.7043 -0.71875C52.6248 -0.71875 52.5487 -0.715288 52.4727 -0.715288C54.6127 -0.14061 56.0751 0.773337 57.0224 1.56265Z" fill="#040000"/>
<path d="M49.733 18.4829C47.1712 17.3162 45.4875 14.4393 45.4875 9.76921C45.4875 4.2336 47.8523 0.910159 51.5377 0.290476C50.9535 0.217775 50.3899 0.179694 49.8644 0.179694C47.0917 0.176232 45.2317 1.52638 44.8133 1.86219C42.497 3.83548 41.3906 6.69156 41.3906 9.54765C41.3906 12.1614 42.3172 14.6297 44.0216 16.513C44.8168 17.3093 46.6803 18.7217 49.7296 18.4829H49.733Z" fill="#040000"/>
<path d="M58.7177 9.8757C57.6875 9.8757 56.0729 9.84801 55.4575 9.82031V10.2392C56.7402 10.4608 56.8508 11.0493 56.8508 14.1719C56.8508 14.1719 56.8715 17.1284 56.792 17.3777C56.7575 17.4885 56.6848 17.5992 56.588 17.71C56.588 17.71 56.5638 17.7377 56.5085 17.7896C56.4325 17.8658 56.3426 17.942 56.2423 18.0147C55.5405 18.5547 53.6874 19.6418 50.0538 19.7629H50.0469C50.7971 19.898 51.5888 19.9741 52.422 19.9741C56.9614 19.9741 59.3055 18.2605 60.194 17.2115C60.194 17.2115 60.4187 16.9207 60.4948 16.5434C60.5708 16.166 60.5847 14.3416 60.5847 14.3416C60.5847 10.1804 60.7921 9.82377 60.7921 9.82377C60.1802 9.85147 59.748 9.87917 58.7177 9.87917V9.8757Z" fill="#040000"/>
<path d="M94.135 1.24332H94.1316C95.0097 2.01879 95.7254 3.1543 96.0988 4.74332H96.5448C96.5171 3.51434 96.5171 2.59693 96.5171 2.15035C96.5171 1.17408 96.4929 0.78635 96.4514 -0.0168151C96.2889 -0.0791296 95.3347 -0.366469 94.8749 -0.470326C93.8688 -0.698813 92.1679 -1 90.4427 -1C89.7823 -1 89.1358 -0.90999 88.5273 -0.736894C92.3718 -0.501484 94.1385 1.25025 94.1385 1.25025L94.135 1.24332Z" fill="#040000"/>
<path d="M83.4344 18.3719C83.4344 18.3719 85.5986 18.8011 88.1501 18.7007C85.9824 17.9114 84.3194 15.9347 84.0048 13.2344H83.4102V15.4465C83.4102 15.9762 83.4205 16.2843 83.4205 17.2329C83.4205 17.5445 83.4205 17.953 83.4344 18.3719Z" fill="#040000"/>
<path d="M86.7481 3.01269C86.7481 2.12644 87.1388 1.39251 87.7404 0.859375C85.1059 1.2298 84.3488 2.73227 84.1967 3.12693C84.01 3.67045 83.9062 4.24859 83.9062 4.85097C83.9062 11.2105 95.0802 10.1062 95.0802 15.4202C95.0802 15.9533 94.9315 16.4449 94.6722 16.8811C94.6722 16.8811 94.6757 16.8777 94.6757 16.8742C94.6757 16.8742 93.7422 18.9133 89.2477 19.9276C89.5969 19.9519 89.9461 19.9692 90.2884 19.9692C95.0767 19.9692 98.0016 17.9959 98.0016 14.5097C98.0016 7.92861 86.7447 8.14325 86.7447 3.00923L86.7481 3.01269Z" fill="#040000"/>
</g>
<defs>
<clipPath id="clip0_5146_25765">
<rect width="98" height="21" fill="white"/>
</clipPath>
</defs>
</svg>
