<svg width="335" height="94" viewBox="0 0 335 94" fill="none" xmlns="http://www.w3.org/2000/svg">
    <path d="M287.157 6.82534L291.256 11.438C291.256 11.438 294.552 9.42493 296.915 9.91309C296.675 9.02471 292.815 5.30044 292.815 5.30044C289.466 4.79575 287.157 6.82534 287.157 6.82534Z" fill="#06716B"/>
    <path d="M50.4168 77.4572L50.0914 82.8458C50.0914 82.8458 53.3741 83.6438 54.5312 85.4092C54.9337 84.7121 54.8566 80.0205 54.8566 80.0205C53.1005 77.634 50.4168 77.4572 50.4168 77.4572Z" fill="#06716B"/>
    <path d="M60 10.4824L63.2 0C63.2 0 68.4 0.582353 70 0C70 1.74706 66.8 10.4824 66.8 10.4824C63.4667 11.6471 60 10.4824 60 10.4824Z" fill="#D93B3B"/>
    <path d="M293.513 81.0773L295.839 72.0209C295.839 72.0209 291.793 70.135 290.887 69C290.111 70.2724 288.561 78.0563 288.561 78.0563C290.471 80.3855 293.513 81.0773 293.513 81.0773Z" fill="#D93B3B"/>
    <path d="M22 43.6706L19.12 37C19.12 37 14.44 37.3706 13 37C13 38.1118 15.88 43.6706 15.88 43.6706C18.88 44.4118 22 43.6706 22 43.6706Z" fill="#CBB19C"/>
    <path d="M325 62.6706L322.12 56C322.12 56 317.44 56.3706 316 56C316 57.1118 318.88 62.6706 318.88 62.6706C321.88 63.4118 325 62.6706 325 62.6706Z" fill="#CBB19C"/>
</svg>